<svg width="14" height="14" viewBox="0 0 14 14" fill="none" xmlns="http://www.w3.org/2000/svg">
<path d="M12.4776 6.89962L12.4776 6.89968C11.9015 7.51311 11.3357 8.13042 10.7717 8.7456C9.64639 9.97327 8.52885 11.1924 7.35356 12.3552C7.14785 12.5546 6.82579 12.5474 6.62865 12.3375L1.52212 6.89969C1.52212 6.89969 1.52212 6.89968 1.52212 6.89968C0.1593 5.4484 0.159306 3.09461 1.52212 1.64336C2.88331 0.193852 5.08857 0.193854 6.44974 1.64336L6.44977 1.6434L6.63541 1.84105C6.72993 1.94167 6.86184 1.99874 6.99989 1.99874C7.13794 1.99873 7.26985 1.94165 7.36435 1.84101L7.54985 1.64348L7.54994 1.64338C8.20597 0.944422 9.09323 0.555885 10.0137 0.555885C10.9342 0.555885 11.8214 0.944383 12.4775 1.6433L12.4776 1.64343C13.1302 2.33806 13.5 3.28263 13.5 4.27151C13.5 5.26041 13.1301 6.20504 12.4776 6.89962Z" stroke="white" stroke-linejoin="round"/>
</svg>
