<svg width="16" height="16" viewBox="0 0 16 16" fill="none" xmlns="http://www.w3.org/2000/svg">
<path d="M14.3 14.0059C14.3 14.5858 13.8298 15.0559 13.25 15.0559C12.6701 15.0559 12.2 14.5858 12.2 14.0059C12.2 13.426 12.6701 12.9559 13.25 12.9559C13.8298 12.9559 14.3 13.426 14.3 14.0059Z" stroke="white" stroke-width="1.1" stroke-linecap="round" stroke-linejoin="round"/>
<path d="M7.29996 14.0059C7.29996 14.5858 6.82984 15.0559 6.24996 15.0559C5.67006 15.0559 5.19996 14.5858 5.19996 14.0059C5.19996 13.426 5.67006 12.9559 6.24996 12.9559C6.82984 12.9559 7.29996 13.426 7.29996 14.0059Z" stroke="white" stroke-width="1.1" stroke-linecap="round" stroke-linejoin="round"/>
<path d="M3.1 2.45589H15L13.6 10.1559H4.5L3.1 2.45589ZM3.1 2.45589C2.98333 1.98922 2.4 1.05589 0.999996 1.05589" stroke="white" stroke-width="1.1" stroke-linecap="round" stroke-linejoin="round"/>
<path d="M13.6 10.1559H4.49995H3.26149C2.01247 10.1559 1.34995 10.7027 1.34995 11.5559C1.34995 12.409 2.01247 12.9559 3.26149 12.9559H13.25" stroke="white" stroke-width="1.1" stroke-linecap="round" stroke-linejoin="round"/>
</svg>
