<svg id="svg" version="1.1" xmlns="http://www.w3.org/2000/svg" xmlns:xlink="http://www.w3.org/1999/xlink" width="400" height="60" viewBox="0, 0, 400,60"><g id="svgg"><path id="path0" d="M29.333 19.012 C 29.012 19.089,28.262 19.258,27.667 19.388 C 27.071 19.519,26.358 19.747,26.083 19.895 C 25.808 20.043,25.487 20.165,25.368 20.166 C 25.250 20.166,24.931 20.317,24.660 20.500 C 24.389 20.683,23.945 20.983,23.673 21.167 C 23.402 21.350,23.137 21.500,23.083 21.500 C 22.923 21.500,20.833 23.706,20.833 23.875 C 20.833 23.961,20.698 24.231,20.533 24.474 C 19.350 26.218,19.258 29.585,20.347 31.333 C 20.432 31.471,20.595 31.771,20.709 32.000 C 20.943 32.472,22.879 34.454,23.478 34.833 C 24.736 35.631,24.946 36.134,24.438 37.133 C 24.313 37.381,24.158 37.940,24.095 38.376 C 24.031 38.812,23.872 39.374,23.741 39.626 C 23.477 40.132,23.422 40.932,23.641 41.068 C 23.719 41.116,24.815 40.464,26.077 39.619 C 27.339 38.774,28.505 38.005,28.668 37.910 C 28.831 37.815,29.096 37.627,29.257 37.493 C 29.464 37.321,30.189 37.219,31.733 37.145 C 34.378 37.018,36.227 36.561,37.833 35.637 C 37.971 35.558,38.308 35.389,38.583 35.261 C 39.670 34.755,42.500 31.688,42.500 31.016 C 42.500 30.940,42.650 30.407,42.833 29.833 C 43.373 28.143,43.079 25.912,42.122 24.453 C 41.963 24.210,41.833 23.946,41.833 23.865 C 41.833 23.703,39.738 21.500,39.583 21.500 C 39.530 21.500,39.265 21.350,38.993 21.167 C 38.722 20.983,38.278 20.683,38.007 20.500 C 37.735 20.317,37.417 20.166,37.298 20.166 C 37.180 20.165,36.858 20.043,36.583 19.895 C 36.308 19.747,35.596 19.519,35.000 19.390 C 34.404 19.261,33.617 19.086,33.250 19.001 C 32.437 18.814,30.131 18.820,29.333 19.012 M172.076 21.708 C 172.032 21.823,172.016 25.629,172.040 30.167 L 172.083 38.417 172.542 38.469 L 173.000 38.522 173.002 34.469 C 173.005 29.502,172.969 29.616,174.587 29.500 C 175.611 29.427,175.750 29.377,175.750 29.083 C 175.750 28.790,175.611 28.740,174.587 28.667 C 173.005 28.553,173.006 28.555,173.002 24.625 L 173.000 21.500 172.578 21.500 C 172.346 21.500,172.120 21.594,172.076 21.708 M189.410 21.708 C 189.366 21.823,189.349 25.629,189.373 30.167 L 189.417 38.417 189.875 38.469 L 190.333 38.522 190.336 34.469 C 190.339 29.502,190.302 29.616,191.921 29.500 C 192.944 29.427,193.083 29.377,193.083 29.083 C 193.083 28.790,192.944 28.740,191.921 28.667 C 190.338 28.553,190.339 28.555,190.336 24.625 L 190.333 21.500 189.911 21.500 C 189.679 21.500,189.454 21.594,189.410 21.708 M263.500 27.667 L 263.500 33.833 264.000 33.833 L 264.500 33.833 264.500 27.667 L 264.500 21.500 264.000 21.500 L 263.500 21.500 263.500 27.667 M200.083 22.811 C 199.625 22.876,199.100 23.020,198.917 23.131 C 198.733 23.242,198.388 23.402,198.149 23.487 C 196.399 24.105,195.340 27.834,196.516 29.239 C 197.129 29.972,197.669 30.500,197.805 30.500 C 197.888 30.500,198.134 30.639,198.353 30.810 C 198.571 30.980,199.124 31.175,199.581 31.243 C 200.655 31.402,201.265 31.724,201.393 32.202 C 201.525 32.695,201.500 34.297,201.351 34.833 L 201.236 35.250 197.910 35.333 C 194.485 35.419,193.858 35.529,194.423 35.942 C 194.670 36.122,196.157 36.167,201.935 36.167 C 209.179 36.167,209.667 36.141,209.667 35.753 C 209.667 35.421,208.843 35.333,205.735 35.333 C 202.350 35.333,202.500 35.422,202.500 33.420 C 202.500 31.848,202.802 31.447,204.119 31.272 C 207.712 30.795,209.216 26.637,206.688 24.167 C 205.486 22.992,202.756 22.431,200.083 22.811 M254.500 22.818 C 252.497 23.089,250.415 25.874,251.145 27.305 C 251.223 27.458,251.330 27.816,251.384 28.099 C 251.500 28.713,252.172 29.816,252.436 29.826 C 252.538 29.830,252.808 29.980,253.036 30.159 C 254.078 30.979,257.178 30.896,258.299 30.018 C 260.290 28.459,260.482 25.861,258.752 23.875 C 258.573 23.669,258.365 23.500,258.290 23.500 C 258.215 23.500,257.950 23.357,257.702 23.182 C 257.197 22.827,255.693 22.656,254.500 22.818 M218.278 22.944 C 218.217 23.006,218.167 23.231,218.167 23.444 L 218.167 23.833 223.094 23.833 C 228.917 23.833,228.667 23.767,228.667 25.319 C 228.667 26.991,228.954 26.903,223.183 27.000 L 218.250 27.083 218.250 29.500 L 218.250 31.917 220.662 32.000 C 223.504 32.098,223.556 32.135,223.457 33.958 C 223.377 35.447,223.468 35.410,219.784 35.463 C 216.136 35.516,216.079 35.525,216.332 35.998 C 216.551 36.407,231.062 36.538,231.467 36.133 C 232.040 35.560,231.742 35.500,228.345 35.500 C 224.422 35.500,224.500 35.532,224.500 33.916 C 224.500 33.332,224.572 32.665,224.661 32.432 L 224.822 32.009 227.369 31.963 C 229.502 31.924,229.917 31.876,229.917 31.667 C 229.917 31.452,229.207 31.405,224.861 31.333 C 218.961 31.236,219.333 31.367,219.333 29.395 C 219.333 27.823,218.962 27.930,224.750 27.833 L 229.750 27.750 229.798 25.667 C 229.825 24.521,229.804 23.415,229.753 23.208 L 229.660 22.833 224.025 22.833 C 220.925 22.833,218.339 22.883,218.278 22.944 M161.167 23.501 C 160.628 23.858,161.455 23.995,164.175 23.997 C 166.095 23.999,166.994 24.061,167.133 24.200 C 167.463 24.530,167.369 25.858,166.958 26.673 L 166.583 27.417 164.750 27.517 C 162.032 27.667,160.873 27.834,160.643 28.112 C 160.259 28.574,160.834 28.665,163.439 28.556 C 165.877 28.453,165.965 28.461,166.069 28.789 C 166.371 29.740,162.965 33.171,160.768 34.127 C 160.288 34.336,160.287 34.340,160.599 34.710 C 160.772 34.916,160.929 35.111,160.948 35.144 C 160.967 35.177,161.184 35.046,161.430 34.852 C 161.677 34.659,161.939 34.500,162.014 34.500 C 162.639 34.500,166.143 31.257,166.608 30.250 C 166.735 29.975,166.901 29.637,166.978 29.500 C 167.915 27.822,168.527 25.749,168.466 24.464 L 168.417 23.417 164.917 23.376 C 162.799 23.351,161.318 23.400,161.167 23.501 M178.500 23.501 C 177.961 23.858,178.789 23.995,181.508 23.997 C 183.428 23.999,184.327 24.061,184.467 24.200 C 184.797 24.530,184.703 25.858,184.292 26.673 L 183.917 27.417 182.083 27.517 C 179.365 27.667,178.207 27.834,177.977 28.112 C 177.593 28.574,178.167 28.665,180.772 28.556 C 183.210 28.453,183.299 28.461,183.403 28.789 C 183.704 29.740,180.298 33.171,178.102 34.127 C 177.622 34.336,177.621 34.340,177.933 34.710 C 178.105 34.916,178.262 35.111,178.281 35.144 C 178.300 35.177,178.517 35.046,178.764 34.852 C 179.010 34.659,179.273 34.500,179.347 34.500 C 179.972 34.500,183.477 31.257,183.941 30.250 C 184.068 29.975,184.234 29.637,184.311 29.500 C 185.248 27.822,185.861 25.749,185.800 24.464 L 185.750 23.417 182.250 23.376 C 180.133 23.351,178.651 23.400,178.500 23.501 M203.504 23.668 C 206.187 24.353,207.340 25.960,206.772 28.222 C 206.638 28.756,205.267 30.167,204.882 30.167 C 204.713 30.167,204.393 30.293,204.172 30.448 C 203.508 30.913,200.681 30.862,199.500 30.363 C 197.659 29.585,197.058 28.591,197.162 26.500 C 197.270 24.340,200.495 22.899,203.504 23.668 M235.453 23.603 C 235.393 23.662,235.420 23.851,235.512 24.022 C 235.668 24.315,235.960 24.333,240.402 24.333 C 244.446 24.333,245.156 24.370,245.338 24.589 C 245.644 24.957,245.451 30.767,245.095 31.917 C 244.727 33.106,244.747 33.196,245.369 33.136 C 246.204 33.054,246.440 31.849,246.520 27.250 L 246.583 23.583 241.072 23.539 C 238.040 23.515,235.512 23.544,235.453 23.603 M256.833 23.850 C 258.654 24.262,259.533 27.070,258.321 28.602 C 256.572 30.811,253.170 30.231,252.236 27.564 C 251.533 25.555,253.856 23.070,255.917 23.628 C 256.100 23.678,256.512 23.777,256.833 23.850 M253.618 32.937 C 253.553 33.002,253.500 34.131,253.500 35.444 L 253.500 37.833 259.139 37.833 C 262.240 37.833,264.827 37.784,264.886 37.725 C 265.313 37.298,264.277 37.177,260.146 37.172 C 254.201 37.165,254.645 37.362,254.507 34.667 C 254.417 32.922,254.151 32.405,253.618 32.937 M234.019 35.211 C 233.065 35.704,233.641 35.750,241.292 35.793 C 249.250 35.838,249.877 35.786,248.575 35.193 C 247.953 34.910,234.569 34.926,234.019 35.211 " stroke="none" fill="#28230d" fill-rule="evenodd"></path><path id="path1" d="M4.306 0.154 C 4.275 0.239,3.987 0.337,3.667 0.373 C 3.301 0.414,3.083 0.528,3.083 0.678 C 3.083 0.809,2.915 0.941,2.708 0.970 C 2.467 1.004,2.333 1.138,2.333 1.345 C 2.333 1.556,2.218 1.667,2.000 1.667 C 1.778 1.667,1.667 1.778,1.667 2.000 C 1.667 2.218,1.556 2.333,1.345 2.333 C 1.138 2.333,1.004 2.467,0.970 2.708 C 0.941 2.915,0.809 3.083,0.678 3.083 C 0.528 3.083,0.414 3.301,0.373 3.667 C 0.337 3.987,0.239 4.275,0.154 4.306 C -0.053 4.380,-0.053 55.620,0.154 55.694 C 0.239 55.725,0.337 56.012,0.373 56.333 C 0.414 56.699,0.528 56.917,0.678 56.917 C 0.809 56.917,0.941 57.085,0.970 57.292 C 1.004 57.533,1.138 57.667,1.345 57.667 C 1.556 57.667,1.667 57.782,1.667 58.000 C 1.667 58.222,1.778 58.333,2.000 58.333 C 2.218 58.333,2.333 58.444,2.333 58.655 C 2.333 58.862,2.467 58.996,2.708 59.030 C 2.915 59.059,3.083 59.191,3.083 59.322 C 3.083 59.472,3.301 59.586,3.667 59.627 C 3.987 59.663,4.275 59.761,4.306 59.846 C 4.381 60.054,395.619 60.054,395.694 59.846 C 395.725 59.761,396.012 59.663,396.333 59.627 C 396.699 59.586,396.917 59.472,396.917 59.322 C 396.917 59.191,397.085 59.059,397.292 59.030 C 397.533 58.996,397.667 58.862,397.667 58.655 C 397.667 58.444,397.782 58.333,398.000 58.333 C 398.222 58.333,398.333 58.222,398.333 58.000 C 398.333 57.782,398.444 57.667,398.655 57.667 C 398.862 57.667,398.996 57.533,399.030 57.292 C 399.059 57.085,399.191 56.917,399.322 56.917 C 399.472 56.917,399.586 56.699,399.627 56.333 C 399.663 56.012,399.761 55.725,399.846 55.694 C 400.053 55.620,400.053 4.380,399.846 4.306 C 399.761 4.275,399.663 3.987,399.627 3.667 C 399.586 3.301,399.472 3.083,399.322 3.083 C 399.191 3.083,399.059 2.915,399.030 2.708 C 398.996 2.467,398.862 2.333,398.655 2.333 C 398.444 2.333,398.333 2.218,398.333 2.000 C 398.333 1.778,398.222 1.667,398.000 1.667 C 397.782 1.667,397.667 1.556,397.667 1.345 C 397.667 1.138,397.533 1.004,397.292 0.970 C 397.085 0.941,396.917 0.809,396.917 0.678 C 396.917 0.528,396.699 0.414,396.333 0.373 C 396.012 0.337,395.725 0.239,395.694 0.154 C 395.619 -0.054,4.381 -0.054,4.306 0.154 M35.267 18.754 C 35.460 18.876,35.910 19.030,36.267 19.095 C 36.624 19.161,37.096 19.354,37.314 19.524 C 37.533 19.694,37.840 19.833,37.997 19.833 C 38.154 19.833,38.455 19.983,38.667 20.167 C 38.878 20.350,39.115 20.500,39.192 20.500 C 39.536 20.500,42.167 23.082,42.167 23.420 C 42.167 23.549,42.307 23.730,42.478 23.822 C 42.649 23.913,42.838 24.230,42.897 24.525 C 42.956 24.820,43.106 25.179,43.230 25.322 C 43.700 25.865,43.686 30.512,43.214 30.804 C 43.111 30.868,42.972 31.144,42.906 31.418 C 42.840 31.692,42.647 32.051,42.477 32.215 C 42.306 32.379,42.167 32.607,42.167 32.721 C 42.167 33.152,39.646 35.500,39.184 35.500 C 39.089 35.500,38.937 35.640,38.845 35.811 C 38.753 35.983,38.446 36.169,38.163 36.226 C 37.879 36.282,37.534 36.442,37.395 36.581 C 37.256 36.720,36.978 36.833,36.777 36.833 C 36.576 36.833,36.131 36.984,35.788 37.168 C 35.274 37.443,34.714 37.521,32.623 37.607 C 30.979 37.674,29.995 37.784,29.833 37.919 C 29.696 38.034,29.422 38.176,29.224 38.237 C 29.026 38.297,28.822 38.456,28.771 38.590 C 28.719 38.724,28.574 38.833,28.448 38.833 C 28.322 38.833,28.083 38.983,27.917 39.167 C 27.751 39.350,27.513 39.500,27.389 39.500 C 27.265 39.500,27.035 39.650,26.878 39.833 C 26.721 40.017,26.508 40.167,26.405 40.167 C 26.303 40.167,26.083 40.317,25.917 40.500 C 25.751 40.683,25.517 40.833,25.397 40.833 C 25.278 40.833,25.035 40.988,24.859 41.177 C 24.611 41.444,24.376 41.509,23.811 41.469 L 23.083 41.417 23.123 40.129 C 23.151 39.215,23.259 38.659,23.498 38.215 C 24.019 37.243,23.973 35.711,23.417 35.500 C 23.188 35.413,23.000 35.265,23.000 35.171 C 23.000 35.077,22.879 35.000,22.732 35.000 C 22.223 35.000,20.034 32.415,19.746 31.474 C 19.681 31.259,19.510 30.949,19.366 30.786 C 18.973 30.339,18.992 25.802,19.389 25.364 C 19.539 25.198,19.711 24.820,19.770 24.525 C 19.829 24.230,20.017 23.913,20.189 23.822 C 20.360 23.730,20.500 23.549,20.500 23.420 C 20.500 23.082,23.131 20.500,23.474 20.500 C 23.552 20.500,23.789 20.350,24.000 20.167 C 24.211 19.983,24.513 19.833,24.670 19.833 C 24.827 19.833,25.134 19.694,25.353 19.524 C 25.571 19.354,26.050 19.160,26.417 19.093 C 26.783 19.025,27.188 18.883,27.316 18.777 C 27.867 18.319,34.552 18.300,35.267 18.754 M173.500 24.417 L 173.583 27.750 174.667 27.796 C 175.911 27.848,176.333 28.171,176.333 29.070 C 176.333 29.954,176.060 30.150,174.750 30.203 L 173.583 30.250 173.539 34.492 C 173.490 39.138,173.525 38.993,172.447 38.997 C 171.061 39.003,171.167 39.748,171.167 30.002 C 171.167 20.195,171.045 20.967,172.583 21.043 L 173.417 21.083 173.500 24.417 M190.833 24.417 L 190.917 27.750 192.000 27.796 C 193.244 27.848,193.667 28.171,193.667 29.070 C 193.667 29.954,193.393 30.150,192.083 30.203 L 190.917 30.250 190.872 34.492 C 190.823 39.138,190.858 38.993,189.781 38.997 C 188.394 39.003,188.500 39.748,188.500 30.002 C 188.500 20.195,188.378 20.967,189.917 21.043 L 190.750 21.083 190.833 24.417 M264.800 21.200 C 265.220 21.620,265.071 33.950,264.644 34.179 C 264.244 34.393,263.260 34.285,262.902 33.988 C 262.518 33.670,262.557 21.731,262.942 21.305 C 263.262 20.952,264.483 20.883,264.800 21.200 M203.539 22.123 C 203.655 22.216,204.122 22.345,204.577 22.411 C 205.031 22.477,205.585 22.674,205.808 22.849 C 206.030 23.024,206.280 23.167,206.364 23.167 C 206.795 23.167,208.118 24.792,208.223 25.451 C 208.283 25.829,208.458 26.356,208.610 26.622 C 208.864 27.065,208.866 27.151,208.626 27.631 C 208.482 27.919,208.313 28.458,208.251 28.828 C 208.188 29.197,208.076 29.500,208.002 29.500 C 207.927 29.500,207.709 29.766,207.517 30.092 C 207.322 30.422,206.953 30.759,206.681 30.853 C 206.413 30.947,206.152 31.131,206.102 31.262 C 206.052 31.393,205.876 31.500,205.711 31.500 C 205.546 31.500,205.132 31.650,204.790 31.833 C 204.448 32.017,204.024 32.167,203.848 32.167 C 203.108 32.167,203.000 32.326,203.000 33.414 C 203.000 34.705,202.881 34.667,206.917 34.667 C 210.200 34.667,210.216 34.673,210.135 35.945 L 210.083 36.750 202.000 36.750 L 193.917 36.750 193.865 35.945 C 193.784 34.667,193.784 34.667,197.229 34.664 C 200.808 34.661,200.699 34.704,200.634 33.324 C 200.584 32.274,200.577 32.261,200.043 32.152 C 199.745 32.092,199.408 31.968,199.293 31.878 C 199.178 31.787,198.880 31.664,198.631 31.605 C 198.010 31.456,196.707 30.555,196.475 30.113 C 196.370 29.913,196.186 29.692,196.066 29.620 C 195.945 29.549,195.795 29.212,195.733 28.870 C 195.670 28.529,195.549 28.205,195.463 28.149 C 195.163 27.954,195.109 26.696,195.383 26.278 C 195.526 26.060,195.694 25.607,195.757 25.270 C 195.821 24.929,196.011 24.583,196.186 24.490 C 196.359 24.397,196.500 24.253,196.500 24.168 C 196.500 23.920,197.291 23.202,197.703 23.077 C 197.912 23.013,198.196 22.865,198.333 22.748 C 198.471 22.632,198.914 22.482,199.318 22.416 C 199.722 22.349,200.284 22.189,200.568 22.060 C 201.145 21.798,203.185 21.841,203.539 22.123 M256.207 22.074 C 256.459 22.205,257.003 22.363,257.416 22.425 C 257.829 22.487,258.167 22.606,258.167 22.688 C 258.167 22.771,258.422 22.961,258.734 23.109 C 259.047 23.258,259.403 23.576,259.526 23.815 C 259.649 24.054,259.839 24.308,259.948 24.378 C 260.058 24.448,260.198 24.843,260.259 25.255 C 260.321 25.667,260.438 26.045,260.519 26.095 C 260.600 26.145,260.667 26.440,260.667 26.750 C 260.667 27.060,260.600 27.355,260.519 27.405 C 260.438 27.455,260.323 27.823,260.263 28.222 C 260.203 28.621,260.026 29.120,259.869 29.331 C 259.442 29.904,258.440 30.832,258.248 30.833 C 258.155 30.833,257.799 30.983,257.456 31.167 C 256.496 31.682,254.446 31.638,253.384 31.079 C 252.451 30.589,251.167 29.527,251.167 29.246 C 251.167 29.139,251.017 28.878,250.833 28.667 C 250.318 28.072,250.354 25.792,250.895 24.774 C 251.551 23.541,252.705 22.578,253.728 22.409 C 254.107 22.347,254.492 22.237,254.583 22.166 C 254.741 22.043,255.219 21.894,255.583 21.854 C 255.675 21.844,255.956 21.943,256.207 22.074 M229.542 22.440 L 230.167 22.544 230.167 25.337 C 230.167 28.713,230.833 28.333,224.903 28.333 L 220.167 28.333 220.167 29.417 L 220.167 30.500 225.238 30.500 C 230.853 30.500,230.833 30.496,230.833 31.563 C 230.833 32.678,230.666 32.744,227.680 32.803 L 225.000 32.856 225.000 33.672 C 225.000 34.794,225.117 34.833,228.478 34.833 C 232.011 34.833,232.202 34.892,232.134 35.958 L 232.083 36.750 224.000 36.750 L 215.917 36.750 215.864 36.006 C 215.783 34.874,215.905 34.833,219.345 34.833 C 222.679 34.833,222.720 34.818,222.635 33.637 L 222.583 32.917 220.391 32.870 C 218.612 32.833,218.157 32.773,217.975 32.553 C 217.702 32.225,217.556 28.056,217.787 27.165 L 217.938 26.583 222.844 26.500 L 227.750 26.417 227.800 25.375 L 227.849 24.333 223.216 24.331 C 220.668 24.330,218.421 24.285,218.222 24.232 C 217.593 24.063,217.526 22.608,218.141 22.445 C 218.576 22.330,228.846 22.325,229.542 22.440 M169.000 22.955 C 169.253 23.276,169.326 23.532,169.249 23.830 C 169.189 24.061,169.053 24.933,168.945 25.768 C 168.838 26.603,168.657 27.398,168.543 27.534 C 168.429 27.670,168.288 28.017,168.231 28.304 C 168.173 28.591,168.025 28.910,167.901 29.013 C 167.777 29.116,167.629 29.450,167.571 29.756 C 167.514 30.061,167.324 30.441,167.150 30.598 C 166.976 30.756,166.833 30.967,166.832 31.067 C 166.831 31.168,166.532 31.512,166.167 31.833 C 165.802 32.154,165.503 32.510,165.502 32.625 C 165.501 32.740,165.393 32.833,165.261 32.833 C 165.130 32.833,164.976 32.979,164.919 33.158 C 164.863 33.337,164.670 33.529,164.491 33.586 C 164.313 33.643,164.167 33.755,164.167 33.835 C 164.167 33.974,163.785 34.218,162.833 34.690 C 162.604 34.804,162.246 35.048,162.037 35.232 C 161.249 35.927,159.833 35.467,159.833 34.516 C 159.833 34.052,160.759 33.167,161.243 33.167 C 161.386 33.167,161.632 33.017,161.789 32.833 C 161.946 32.650,162.141 32.500,162.222 32.500 C 162.627 32.500,165.167 29.834,165.167 29.409 C 165.167 29.291,165.260 29.157,165.375 29.110 C 165.490 29.064,165.147 29.020,164.614 29.013 C 164.081 29.006,163.490 29.083,163.301 29.184 C 163.112 29.285,162.386 29.406,161.687 29.454 C 160.093 29.562,159.785 29.326,159.865 28.059 L 159.917 27.250 163.075 27.119 C 166.719 26.969,166.376 27.099,166.468 25.830 L 166.540 24.833 163.720 24.833 C 160.534 24.833,160.500 24.821,160.500 23.667 C 160.500 22.482,160.433 22.500,164.771 22.500 L 168.642 22.500 169.000 22.955 M186.333 22.955 C 186.587 23.276,186.659 23.532,186.582 23.830 C 186.523 24.061,186.386 24.933,186.279 25.768 C 186.171 26.603,185.990 27.398,185.876 27.534 C 185.762 27.670,185.622 28.017,185.564 28.304 C 185.507 28.591,185.358 28.910,185.234 29.013 C 185.110 29.116,184.962 29.450,184.905 29.756 C 184.847 30.061,184.658 30.441,184.483 30.598 C 184.309 30.756,184.166 30.967,184.165 31.067 C 184.164 31.168,183.865 31.512,183.500 31.833 C 183.135 32.154,182.836 32.510,182.835 32.625 C 182.834 32.740,182.726 32.833,182.595 32.833 C 182.463 32.833,182.309 32.979,182.253 33.158 C 182.196 33.337,182.003 33.529,181.825 33.586 C 181.646 33.643,181.500 33.755,181.500 33.835 C 181.500 33.974,181.118 34.218,180.167 34.690 C 179.938 34.804,179.579 35.048,179.370 35.232 C 178.583 35.927,177.167 35.467,177.167 34.516 C 177.167 34.052,178.092 33.167,178.576 33.167 C 178.719 33.167,178.965 33.017,179.122 32.833 C 179.279 32.650,179.474 32.500,179.555 32.500 C 179.961 32.500,182.500 29.834,182.500 29.409 C 182.500 29.291,182.594 29.157,182.708 29.110 C 182.823 29.064,182.480 29.020,181.947 29.013 C 181.414 29.006,180.823 29.083,180.635 29.184 C 180.446 29.285,179.719 29.406,179.020 29.454 C 177.426 29.562,177.118 29.326,177.198 28.059 L 177.250 27.250 180.408 27.119 C 184.052 26.969,183.710 27.099,183.801 25.830 L 183.873 24.833 181.053 24.833 C 177.867 24.833,177.833 24.821,177.833 23.667 C 177.833 22.482,177.766 22.500,182.105 22.500 L 185.976 22.500 186.333 22.955 M246.750 22.950 C 247.533 23.324,247.581 23.595,247.348 26.307 C 246.699 33.861,246.780 33.270,246.330 33.645 C 245.732 34.143,244.521 33.848,244.484 33.196 C 244.417 31.993,244.570 29.634,244.764 28.889 C 244.894 28.391,245.000 27.275,245.000 26.409 L 245.000 24.833 240.055 24.833 C 234.716 24.833,234.496 24.798,234.503 23.933 C 234.506 23.464,234.657 23.265,235.250 22.948 C 236.022 22.534,245.882 22.536,246.750 22.950 M199.833 24.403 C 199.604 24.540,199.259 24.724,199.066 24.813 C 197.206 25.664,197.163 28.170,198.988 29.395 C 200.712 30.552,205.833 29.945,205.833 28.584 C 205.833 28.469,205.946 28.281,206.083 28.167 C 206.370 27.929,206.432 26.440,206.169 26.118 C 206.079 26.007,205.810 25.673,205.571 25.375 C 205.332 25.077,205.056 24.833,204.957 24.833 C 204.857 24.833,204.631 24.702,204.454 24.542 C 204.003 24.134,200.460 24.027,199.833 24.403 M254.508 24.278 C 252.783 25.030,252.245 27.270,253.491 28.517 C 254.035 29.061,254.114 29.086,255.502 29.141 L 256.947 29.198 257.639 28.391 C 258.349 27.563,258.645 26.046,258.156 25.744 C 258.059 25.683,257.911 25.454,257.827 25.234 C 257.743 25.014,257.564 24.833,257.429 24.833 C 257.294 24.833,257.116 24.713,257.034 24.566 C 256.876 24.284,254.988 24.069,254.508 24.278 M255.011 32.673 C 255.298 32.826,255.333 33.035,255.333 34.589 C 255.333 35.548,255.352 36.349,255.375 36.369 C 255.398 36.388,257.667 36.445,260.417 36.494 L 265.417 36.583 265.467 37.360 C 265.553 38.687,265.652 38.667,259.139 38.667 C 252.328 38.667,253.000 39.016,253.000 35.477 C 253.000 34.129,253.046 32.909,253.101 32.764 C 253.220 32.455,254.491 32.394,255.011 32.673 M249.469 35.309 C 249.571 36.739,250.004 36.667,241.362 36.667 C 232.792 36.667,233.167 36.724,233.167 35.419 C 233.167 34.436,232.636 34.493,241.404 34.540 L 249.417 34.583 249.469 35.309 " stroke="none" fill="#fbe304" fill-rule="evenodd"></path><path id="path2" d="M30.375 18.623 C 30.902 18.656,31.765 18.656,32.292 18.623 C 32.819 18.590,32.387 18.563,31.333 18.563 C 30.279 18.563,29.848 18.590,30.375 18.623 M27.833 18.917 C 27.295 19.224,27.569 19.227,28.417 18.921 C 28.945 18.731,28.997 18.681,28.667 18.680 C 28.438 18.679,28.063 18.786,27.833 18.917 M34.250 18.921 C 35.097 19.227,35.372 19.224,34.833 18.917 C 34.604 18.786,34.229 18.679,34.000 18.680 C 33.670 18.681,33.722 18.731,34.250 18.921 M22.053 21.958 C 21.599 22.394,21.087 22.938,20.916 23.167 C 20.745 23.396,20.893 23.283,21.245 22.917 C 21.597 22.550,22.154 22.009,22.484 21.715 C 22.814 21.421,23.037 21.177,22.981 21.174 C 22.924 21.170,22.506 21.523,22.053 21.958 M40.183 21.697 C 40.512 22.001,41.065 22.550,41.412 22.917 C 42.013 23.553,42.022 23.557,41.615 22.999 C 41.195 22.423,40.150 21.423,39.775 21.238 C 39.670 21.186,39.853 21.393,40.183 21.697 M171.609 21.471 C 171.245 21.873,171.181 38.166,171.542 38.465 C 171.708 38.603,171.750 36.897,171.750 30.028 L 171.750 21.417 172.526 21.417 C 172.953 21.417,173.267 21.360,173.225 21.292 C 173.065 21.034,171.886 21.166,171.609 21.471 M188.942 21.471 C 188.579 21.873,188.514 38.166,188.875 38.465 C 189.041 38.603,189.083 36.897,189.083 30.028 L 189.083 21.417 189.859 21.417 C 190.286 21.417,190.601 21.360,190.558 21.292 C 190.398 21.034,189.219 21.166,188.942 21.471 M264.460 21.353 C 264.623 21.561,264.661 23.019,264.627 27.770 L 264.583 33.917 264.000 34.020 C 263.421 34.122,263.421 34.123,263.925 34.145 C 264.845 34.184,264.833 34.265,264.833 27.654 C 264.833 22.030,264.810 21.523,264.542 21.312 C 264.283 21.109,264.273 21.113,264.460 21.353 M173.370 24.695 C 173.325 28.514,173.266 28.333,174.568 28.333 C 176.702 28.333,176.634 29.756,174.494 29.876 L 173.417 29.936 174.619 29.968 C 175.889 30.002,176.171 29.835,176.164 29.053 C 176.159 28.427,175.872 28.252,174.715 28.167 L 173.583 28.083 173.495 24.833 L 173.406 21.583 173.370 24.695 M190.703 24.695 C 190.658 28.514,190.599 28.333,191.901 28.333 C 194.036 28.333,193.967 29.756,191.827 29.876 L 190.750 29.936 191.952 29.968 C 193.222 30.002,193.504 29.835,193.497 29.053 C 193.492 28.427,193.205 28.252,192.048 28.167 L 190.917 28.083 190.828 24.833 L 190.739 21.583 190.703 24.695 M263.075 27.667 C 263.075 31.012,263.098 32.381,263.125 30.708 C 263.152 29.035,263.152 26.298,263.125 24.625 C 263.098 22.952,263.075 24.321,263.075 27.667 M200.917 22.316 C 200.621 22.382,201.028 22.428,201.917 22.430 C 202.766 22.431,203.236 22.382,203.000 22.316 C 202.481 22.171,201.574 22.171,200.917 22.316 M255.125 22.451 C 255.331 22.491,255.669 22.491,255.875 22.451 C 256.081 22.411,255.912 22.379,255.500 22.379 C 255.088 22.379,254.919 22.411,255.125 22.451 M199.375 22.615 C 199.535 22.657,199.798 22.657,199.958 22.615 C 200.119 22.573,199.987 22.539,199.667 22.539 C 199.346 22.539,199.215 22.573,199.375 22.615 M218.033 22.700 C 217.923 22.810,217.833 23.095,217.833 23.333 C 217.833 24.161,217.891 24.169,223.075 24.129 L 227.917 24.091 223.000 24.004 L 218.083 23.917 218.083 23.333 L 218.083 22.750 223.917 22.663 L 229.750 22.577 223.992 22.538 C 219.691 22.510,218.183 22.551,218.033 22.700 M205.093 22.911 C 205.271 23.046,205.492 23.156,205.583 23.156 C 205.675 23.156,205.604 23.046,205.426 22.911 C 205.249 22.777,205.028 22.667,204.936 22.667 C 204.845 22.667,204.915 22.777,205.093 22.911 M160.867 23.033 C 160.757 23.143,160.668 23.312,160.669 23.408 C 160.671 23.505,160.743 23.471,160.830 23.333 C 161.089 22.922,168.323 22.866,168.620 23.273 C 168.738 23.433,168.833 23.489,168.833 23.399 C 168.833 22.895,168.387 22.833,164.750 22.833 C 162.107 22.833,161.010 22.890,160.867 23.033 M178.200 23.033 C 178.090 23.143,178.001 23.312,178.003 23.408 C 178.004 23.505,178.076 23.471,178.163 23.333 C 178.422 22.922,185.656 22.866,185.954 23.273 C 186.071 23.433,186.167 23.489,186.167 23.399 C 186.167 22.895,185.720 22.833,182.083 22.833 C 179.441 22.833,178.343 22.890,178.200 23.033 M230.066 25.333 C 230.066 26.662,230.092 27.206,230.124 26.542 C 230.155 25.877,230.155 24.790,230.124 24.125 C 230.092 23.460,230.066 24.004,230.066 25.333 M234.987 23.433 C 234.730 23.742,235.054 24.499,235.500 24.631 C 235.700 24.690,235.696 24.660,235.478 24.477 C 235.074 24.141,235.012 23.787,235.298 23.458 C 235.437 23.298,235.474 23.167,235.380 23.167 C 235.285 23.167,235.108 23.286,234.987 23.433 M246.688 23.442 C 246.858 23.647,246.910 24.238,246.890 25.734 L 246.862 27.750 247.011 25.680 C 247.159 23.638,247.086 23.167,246.626 23.167 C 246.534 23.167,246.562 23.291,246.688 23.442 M258.889 23.711 C 259.179 24.011,259.449 24.235,259.488 24.210 C 259.583 24.148,258.638 23.167,258.483 23.167 C 258.416 23.167,258.599 23.412,258.889 23.711 M196.781 24.114 C 196.351 24.543,196.000 24.968,196.000 25.058 C 196.000 25.149,196.019 25.189,196.042 25.149 C 196.065 25.109,196.456 24.684,196.910 24.205 C 197.938 23.122,197.841 23.054,196.781 24.114 M206.847 23.906 C 207.084 24.187,207.440 24.633,207.639 24.897 C 207.837 25.162,208.000 25.307,208.000 25.221 C 208.000 25.134,207.644 24.688,207.208 24.229 C 206.773 23.771,206.610 23.625,206.847 23.906 M251.695 23.990 C 251.404 24.352,251.167 24.695,251.167 24.753 C 251.167 24.848,251.514 24.450,252.149 23.625 C 252.605 23.034,252.205 23.355,251.695 23.990 M160.737 24.055 C 160.790 24.223,160.833 24.392,160.833 24.430 C 160.833 24.469,162.030 24.500,163.492 24.500 C 166.283 24.500,167.106 24.658,166.909 25.155 C 166.852 25.299,166.772 25.679,166.732 26.000 C 166.666 26.534,166.681 26.519,166.910 25.833 C 167.388 24.397,167.260 24.339,163.633 24.336 C 161.325 24.334,160.994 24.299,160.829 24.042 C 160.654 23.769,160.648 23.770,160.737 24.055 M178.071 24.055 C 178.124 24.223,178.167 24.392,178.167 24.430 C 178.167 24.469,179.363 24.500,180.825 24.500 C 183.616 24.500,184.439 24.658,184.242 25.155 C 184.185 25.299,184.106 25.679,184.066 26.000 C 183.999 26.534,184.015 26.519,184.243 25.833 C 184.721 24.397,184.593 24.339,180.967 24.336 C 178.659 24.334,178.328 24.299,178.162 24.042 C 177.987 23.769,177.981 23.770,178.071 24.055 M201.292 23.955 C 201.681 23.990,202.319 23.990,202.708 23.955 C 203.098 23.920,202.779 23.892,202.000 23.892 C 201.221 23.892,200.902 23.920,201.292 23.955 M20.072 24.411 C 19.923 24.638,19.828 24.890,19.859 24.973 C 19.891 25.055,20.038 24.870,20.187 24.561 C 20.506 23.901,20.452 23.831,20.072 24.411 M42.368 24.251 C 42.433 24.352,42.560 24.618,42.649 24.842 C 42.752 25.100,42.816 25.150,42.823 24.977 C 42.829 24.827,42.702 24.561,42.542 24.386 C 42.381 24.211,42.303 24.150,42.368 24.251 M198.857 24.506 C 198.345 24.931,198.622 24.926,199.167 24.500 C 199.396 24.321,199.508 24.175,199.417 24.176 C 199.325 24.177,199.073 24.325,198.857 24.506 M204.820 24.446 C 205.042 24.613,205.511 25.044,205.862 25.403 C 206.213 25.762,206.498 25.987,206.495 25.903 C 206.485 25.624,205.760 24.918,205.083 24.527 C 204.717 24.315,204.598 24.279,204.820 24.446 M228.083 25.291 L 228.083 26.417 223.333 26.504 L 218.583 26.591 223.195 26.629 C 225.731 26.650,227.925 26.621,228.070 26.566 C 228.346 26.460,228.478 24.167,228.208 24.166 C 228.140 24.166,228.083 24.672,228.083 25.291 M253.283 24.731 C 252.944 25.041,252.669 25.397,252.672 25.522 C 252.675 25.656,252.754 25.612,252.864 25.417 C 252.967 25.233,253.283 24.880,253.567 24.632 C 253.851 24.383,254.042 24.177,253.991 24.173 C 253.940 24.170,253.621 24.421,253.283 24.731 M257.167 24.224 C 257.167 24.284,257.481 24.652,257.866 25.041 C 258.376 25.559,258.471 25.615,258.217 25.250 C 257.838 24.705,257.167 24.049,257.167 24.224 M168.714 25.250 C 168.716 25.708,168.748 25.876,168.786 25.623 C 168.825 25.369,168.824 24.994,168.784 24.789 C 168.744 24.584,168.713 24.792,168.714 25.250 M186.048 25.250 C 186.049 25.708,186.081 25.876,186.120 25.623 C 186.158 25.369,186.157 24.994,186.117 24.789 C 186.078 24.584,186.046 24.792,186.048 25.250 M245.166 26.466 L 245.248 28.250 245.297 26.598 C 245.324 25.689,245.287 24.887,245.215 24.814 C 245.142 24.741,245.120 25.485,245.166 26.466 M250.849 25.539 C 250.735 25.881,250.675 26.331,250.715 26.539 C 250.777 26.859,250.791 26.845,250.811 26.447 C 250.823 26.189,250.913 25.829,251.011 25.646 C 251.108 25.464,251.158 25.225,251.121 25.116 C 251.085 25.006,250.962 25.197,250.849 25.539 M19.527 25.757 C 19.421 25.991,19.336 26.273,19.340 26.383 C 19.343 26.493,19.457 26.328,19.592 26.016 C 19.877 25.360,19.817 25.121,19.527 25.757 M42.839 25.356 C 42.836 25.414,42.943 25.714,43.077 26.023 C 43.211 26.331,43.321 26.471,43.321 26.333 C 43.321 26.093,42.851 25.139,42.839 25.356 M252.447 26.426 C 252.394 26.752,252.417 27.184,252.498 27.385 C 252.610 27.661,252.648 27.518,252.656 26.792 C 252.668 25.700,252.588 25.560,252.447 26.426 M258.552 26.750 C 258.553 27.300,258.584 27.505,258.621 27.205 C 258.658 26.906,258.657 26.456,258.619 26.205 C 258.581 25.955,258.551 26.200,258.552 26.750 M197.387 27.167 C 197.387 27.762,197.417 28.006,197.454 27.708 C 197.491 27.410,197.491 26.923,197.454 26.625 C 197.417 26.327,197.387 26.571,197.387 27.167 M168.378 26.847 C 168.265 27.148,168.203 27.425,168.239 27.462 C 168.358 27.580,168.689 26.824,168.636 26.557 C 168.605 26.405,168.499 26.524,168.378 26.847 M185.711 26.847 C 185.598 27.148,185.536 27.425,185.573 27.462 C 185.692 27.580,186.023 26.824,185.969 26.557 C 185.938 26.405,185.832 26.524,185.711 26.847 M195.570 26.743 C 195.514 26.968,195.539 27.362,195.627 27.618 C 195.767 28.025,195.786 27.974,195.779 27.208 C 195.769 26.237,195.723 26.135,195.570 26.743 M206.550 27.167 C 206.550 27.671,206.581 27.877,206.619 27.625 C 206.658 27.373,206.658 26.960,206.619 26.708 C 206.581 26.456,206.550 26.662,206.550 27.167 M208.212 27.167 C 208.212 27.579,208.245 27.748,208.284 27.542 C 208.324 27.335,208.324 26.998,208.284 26.792 C 208.245 26.585,208.212 26.754,208.212 27.167 M217.914 27.042 C 217.862 27.248,217.845 28.429,217.874 29.667 L 217.927 31.917 217.964 29.492 C 217.988 27.872,218.066 27.000,218.200 26.867 C 218.352 26.715,218.353 26.667,218.203 26.667 C 218.095 26.667,217.965 26.835,217.914 27.042 M19.223 28.167 C 19.223 28.854,19.252 29.135,19.288 28.792 C 19.324 28.448,19.324 27.885,19.288 27.542 C 19.252 27.198,19.223 27.479,19.223 28.167 M43.388 28.083 C 43.389 28.725,43.419 28.967,43.455 28.621 C 43.491 28.275,43.490 27.750,43.454 27.455 C 43.417 27.159,43.387 27.442,43.388 28.083 M250.684 27.333 C 250.681 27.563,250.786 27.938,250.917 28.167 C 251.218 28.694,251.220 28.601,250.925 27.667 C 250.758 27.135,250.687 27.038,250.684 27.333 M163.792 27.290 C 164.273 27.323,165.060 27.323,165.542 27.290 C 166.023 27.256,165.629 27.228,164.667 27.228 C 163.704 27.228,163.310 27.256,163.792 27.290 M181.125 27.290 C 181.606 27.323,182.394 27.323,182.875 27.290 C 183.356 27.256,182.963 27.228,182.000 27.228 C 181.037 27.228,180.644 27.256,181.125 27.290 M160.200 27.533 C 159.215 28.518,160.570 29.413,162.417 28.998 C 162.957 28.876,162.872 28.865,161.970 28.936 C 160.613 29.043,160.167 28.852,160.167 28.164 C 160.167 27.633,160.314 27.558,161.583 27.447 C 162.120 27.401,162.069 27.384,161.325 27.361 C 160.791 27.345,160.315 27.418,160.200 27.533 M177.533 27.533 C 176.549 28.518,177.903 29.413,179.750 28.998 C 180.290 28.876,180.206 28.865,179.303 28.936 C 177.947 29.043,177.500 28.852,177.500 28.164 C 177.500 27.633,177.648 27.558,178.917 27.447 C 179.453 27.401,179.403 27.384,178.658 27.361 C 178.124 27.345,177.649 27.418,177.533 27.533 M260.025 27.908 C 260.001 28.375,259.290 29.616,258.902 29.868 C 258.802 29.933,258.539 30.145,258.318 30.338 C 257.995 30.620,258.040 30.610,258.544 30.286 C 259.391 29.742,260.212 28.489,260.120 27.881 L 260.050 27.417 260.025 27.908 M167.797 28.305 C 167.639 28.631,167.540 28.929,167.576 28.965 C 167.671 29.060,168.197 28.004,168.135 27.844 C 168.107 27.771,167.954 27.978,167.797 28.305 M185.130 28.305 C 184.972 28.631,184.873 28.929,184.909 28.965 C 185.004 29.060,185.531 28.004,185.468 27.844 C 185.440 27.771,185.288 27.978,185.130 28.305 M225.083 28.000 L 220.250 28.091 225.032 28.129 C 228.081 28.153,229.851 28.106,229.917 28.000 C 229.973 27.908,229.996 27.850,229.968 27.871 C 229.940 27.892,227.742 27.950,225.083 28.000 M257.741 28.588 C 257.006 29.398,257.006 29.615,257.741 28.880 C 258.139 28.482,258.596 27.824,258.464 27.838 C 258.438 27.841,258.112 28.179,257.741 28.588 M219.605 28.542 C 219.009 30.768,219.160 30.833,224.891 30.833 C 229.954 30.833,230.500 30.905,230.500 31.572 C 230.500 32.116,229.962 32.250,227.447 32.333 C 225.412 32.401,224.931 32.463,224.876 32.667 C 224.829 32.838,224.852 32.855,224.948 32.721 C 225.041 32.590,225.928 32.507,227.622 32.471 C 230.441 32.411,230.815 32.279,230.600 31.425 C 230.426 30.732,229.944 30.667,224.978 30.667 C 219.374 30.667,219.085 30.551,219.829 28.594 C 219.919 28.359,219.927 28.167,219.849 28.167 C 219.770 28.167,219.660 28.335,219.605 28.542 M206.135 28.625 C 205.841 28.967,205.621 29.333,205.709 29.333 C 205.743 29.333,205.937 29.108,206.140 28.833 C 206.542 28.290,206.538 28.155,206.135 28.625 M253.158 28.741 C 253.633 29.247,253.739 29.281,253.510 28.853 C 253.418 28.680,253.211 28.489,253.050 28.427 C 252.832 28.343,252.860 28.423,253.158 28.741 M164.125 28.787 C 164.423 28.824,164.910 28.824,165.208 28.787 C 165.506 28.750,165.262 28.720,164.667 28.720 C 164.071 28.720,163.827 28.750,164.125 28.787 M181.458 28.787 C 181.756 28.824,182.244 28.824,182.542 28.787 C 182.840 28.750,182.596 28.720,182.000 28.720 C 181.404 28.720,181.160 28.750,181.458 28.787 M251.172 28.719 C 251.162 28.991,251.517 29.500,251.714 29.497 C 251.854 29.496,251.860 29.457,251.736 29.372 C 251.636 29.305,251.470 29.100,251.366 28.917 C 251.262 28.733,251.175 28.645,251.172 28.719 M198.500 29.475 C 198.821 29.759,199.196 29.987,199.333 29.982 C 199.556 29.975,199.556 29.963,199.333 29.878 C 199.196 29.825,198.821 29.596,198.500 29.370 L 197.917 28.959 198.500 29.475 M244.842 30.425 C 244.725 31.210,244.667 31.889,244.713 31.935 C 244.759 31.981,244.892 31.376,245.008 30.592 C 245.125 29.807,245.183 29.128,245.137 29.082 C 245.091 29.036,244.958 29.640,244.842 30.425 M196.491 29.789 C 196.979 30.435,197.333 30.785,197.333 30.621 C 197.333 30.586,197.024 30.225,196.645 29.820 L 195.957 29.083 196.491 29.789 M246.720 30.167 C 246.720 30.762,246.750 31.006,246.787 30.708 C 246.824 30.410,246.824 29.923,246.787 29.625 C 246.750 29.327,246.720 29.571,246.720 30.167 M254.610 29.523 C 254.779 29.589,255.179 29.643,255.500 29.643 C 255.821 29.643,256.221 29.589,256.390 29.523 C 256.560 29.456,256.164 29.402,255.500 29.402 C 254.836 29.402,254.440 29.456,254.610 29.523 M19.345 29.917 C 19.344 30.100,19.454 30.396,19.589 30.574 C 19.898 30.983,19.899 30.856,19.590 30.144 C 19.421 29.756,19.346 29.686,19.345 29.917 M43.043 30.118 C 42.930 30.361,42.867 30.590,42.905 30.627 C 43.005 30.727,43.364 30.008,43.302 29.830 C 43.274 29.746,43.157 29.876,43.043 30.118 M166.832 30.372 C 166.369 31.195,164.303 33.411,163.583 33.856 C 163.308 34.026,163.171 34.166,163.279 34.166 C 163.534 34.167,164.375 33.454,165.324 32.432 C 165.742 31.982,166.201 31.494,166.345 31.348 C 166.666 31.023,167.370 29.814,167.286 29.731 C 167.253 29.698,167.049 29.986,166.832 30.372 M184.165 30.372 C 183.702 31.195,181.636 33.411,180.917 33.856 C 180.642 34.026,180.505 34.166,180.612 34.166 C 180.868 34.167,181.708 33.454,182.657 32.432 C 183.075 31.982,183.534 31.494,183.678 31.348 C 183.999 31.023,184.703 29.814,184.620 29.731 C 184.586 29.698,184.382 29.986,184.165 30.372 M206.913 30.155 C 206.640 30.423,206.049 30.836,205.600 31.071 C 205.151 31.307,204.875 31.500,204.987 31.500 C 205.459 31.500,207.500 30.059,207.500 29.726 C 207.500 29.604,207.397 29.679,206.913 30.155 M165.167 29.983 C 165.167 30.372,162.757 32.489,161.448 33.250 C 159.894 34.153,159.770 34.369,160.409 35.059 C 160.915 35.606,161.121 35.609,161.833 35.083 C 162.144 34.854,162.339 34.667,162.267 34.667 C 162.195 34.667,161.945 34.817,161.712 35.000 C 161.170 35.426,160.927 35.420,160.506 34.969 C 159.995 34.419,160.079 34.240,161.125 33.653 C 162.967 32.618,165.974 29.833,165.250 29.833 C 165.204 29.833,165.167 29.901,165.167 29.983 M182.500 29.983 C 182.500 30.372,180.090 32.489,178.781 33.250 C 177.227 34.153,177.103 34.369,177.742 35.059 C 178.249 35.606,178.454 35.609,179.167 35.083 C 179.477 34.854,179.672 34.667,179.600 34.667 C 179.528 34.667,179.279 34.817,179.045 35.000 C 178.504 35.426,178.260 35.420,177.840 34.969 C 177.328 34.419,177.412 34.240,178.458 33.653 C 180.300 32.618,183.307 29.833,182.583 29.833 C 182.537 29.833,182.500 29.901,182.500 29.983 M200.083 30.241 C 200.358 30.375,200.771 30.481,201.000 30.475 C 201.383 30.467,201.377 30.455,200.917 30.329 C 199.707 29.998,199.552 29.981,200.083 30.241 M203.250 30.255 C 202.825 30.395,202.712 30.479,202.939 30.487 C 203.135 30.494,203.547 30.390,203.856 30.257 C 204.546 29.957,204.157 29.956,203.250 30.255 M173.406 34.250 C 173.405 36.542,173.429 37.502,173.458 36.385 C 173.487 35.267,173.487 33.392,173.458 32.218 C 173.429 31.044,173.406 31.958,173.406 34.250 M190.739 34.250 C 190.739 36.542,190.762 37.502,190.791 36.385 C 190.820 35.267,190.820 33.392,190.791 32.218 C 190.763 31.044,190.739 31.958,190.739 34.250 M252.810 30.490 C 253.027 30.679,253.283 30.833,253.380 30.833 C 253.585 30.833,253.575 30.825,252.917 30.440 L 252.417 30.147 252.810 30.490 M197.879 31.000 C 198.112 31.183,198.366 31.332,198.443 31.330 C 198.625 31.325,197.797 30.675,197.603 30.670 C 197.521 30.668,197.646 30.817,197.879 31.000 M256.458 30.973 C 255.655 31.193,255.373 31.202,254.727 31.029 C 254.302 30.916,253.921 30.857,253.879 30.899 C 253.459 31.319,256.001 31.399,257.083 31.000 C 258.092 30.628,257.771 30.614,256.458 30.973 M19.844 31.145 C 19.830 31.448,20.690 32.792,20.973 32.909 C 21.095 32.959,20.965 32.710,20.683 32.354 C 20.401 31.998,20.100 31.530,20.013 31.312 C 19.926 31.095,19.850 31.019,19.844 31.145 M41.917 32.452 C 41.550 32.961,40.762 33.828,40.167 34.381 C 39.571 34.933,39.383 35.156,39.750 34.876 C 40.793 34.080,42.823 31.768,42.640 31.584 C 42.609 31.553,42.283 31.944,41.917 32.452 M200.125 31.854 L 201.000 32.190 201.000 33.422 C 201.000 35.030,201.070 35.000,197.365 35.000 C 194.712 35.000,194.349 35.033,194.153 35.292 C 193.966 35.540,193.968 35.552,194.166 35.375 C 194.335 35.224,195.248 35.167,197.461 35.167 C 201.271 35.167,201.167 35.214,201.167 33.498 L 201.167 32.173 200.507 31.837 C 200.144 31.652,199.712 31.504,199.548 31.509 C 199.384 31.513,199.644 31.669,200.125 31.854 M203.554 31.721 C 202.695 32.038,202.708 32.188,203.571 31.929 C 204.009 31.797,204.409 31.647,204.461 31.595 C 204.614 31.442,204.126 31.510,203.554 31.721 M246.445 32.280 C 246.370 32.747,246.189 33.089,245.894 33.321 C 245.389 33.719,245.578 33.794,246.123 33.412 C 246.479 33.162,246.771 32.231,246.628 31.801 C 246.588 31.682,246.506 31.897,246.445 32.280 M218.145 32.223 C 218.335 32.453,218.711 32.500,220.365 32.500 C 222.917 32.500,223.000 32.544,223.000 33.910 C 223.000 34.614,222.929 34.999,222.792 35.045 C 222.671 35.086,222.689 35.108,222.833 35.098 C 223.155 35.075,223.286 32.928,222.988 32.568 C 222.839 32.389,222.300 32.333,220.719 32.333 C 219.461 32.333,218.501 32.257,218.281 32.139 C 217.952 31.964,217.939 31.972,218.145 32.223 M202.721 33.417 C 202.722 34.058,202.752 34.300,202.788 33.955 C 202.824 33.609,202.824 33.084,202.787 32.788 C 202.750 32.492,202.721 32.775,202.721 33.417 M244.523 32.675 C 244.500 33.104,244.760 33.500,245.065 33.500 C 245.156 33.500,245.109 33.406,244.960 33.292 C 244.812 33.177,244.658 32.896,244.618 32.667 L 244.545 32.250 244.523 32.675 M253.240 32.883 C 253.194 33.001,253.178 34.183,253.204 35.508 L 253.251 37.917 253.334 35.291 C 253.415 32.710,253.405 32.452,253.240 32.883 M224.714 33.750 C 224.716 34.208,224.748 34.376,224.786 34.123 C 224.825 33.869,224.824 33.494,224.784 33.289 C 224.744 33.084,224.713 33.292,224.714 33.750 M22.190 34.200 C 22.722 34.723,23.329 35.233,23.537 35.334 C 23.787 35.456,23.746 35.389,23.417 35.138 C 23.142 34.929,22.535 34.418,22.069 34.004 C 21.335 33.351,21.351 33.377,22.190 34.200 M254.868 34.796 C 254.824 36.970,254.469 36.833,260.164 36.833 C 262.625 36.833,264.758 36.879,264.903 36.934 C 265.246 37.066,265.254 37.948,264.913 38.054 C 264.736 38.109,264.748 38.125,264.955 38.107 C 265.146 38.090,265.269 37.916,265.304 37.613 C 265.412 36.674,265.377 36.667,260.355 36.664 C 254.478 36.661,255.024 36.853,254.957 34.774 L 254.904 33.083 254.868 34.796 M202.901 34.871 C 202.934 35.033,203.733 35.094,206.251 35.129 C 208.550 35.160,209.638 35.236,209.821 35.379 C 210.052 35.559,210.056 35.549,209.855 35.292 C 209.650 35.031,209.271 35.000,206.327 35.000 C 204.240 35.000,202.997 34.937,202.943 34.829 C 202.896 34.735,202.878 34.754,202.901 34.871 M233.391 34.922 C 233.337 35.065,233.339 35.228,233.396 35.285 C 233.453 35.342,233.500 35.264,233.500 35.111 C 233.500 34.672,248.892 34.686,249.165 35.125 C 249.330 35.392,249.341 35.388,249.296 35.083 C 249.226 34.623,233.567 34.464,233.391 34.922 M24.071 36.380 C 24.062 36.924,24.103 37.112,24.184 36.905 C 24.351 36.479,24.365 35.706,24.208 35.609 C 24.140 35.567,24.078 35.914,24.071 36.380 M38.000 35.853 C 37.679 36.025,37.540 36.166,37.690 36.166 C 37.840 36.167,38.140 36.019,38.357 35.839 C 38.833 35.442,38.763 35.445,38.000 35.853 M209.795 36.129 L 209.698 36.500 202.024 36.500 C 194.895 36.500,194.337 36.479,194.169 36.208 C 194.003 35.942,193.992 35.945,194.038 36.250 C 194.087 36.577,194.232 36.584,201.855 36.627 C 209.994 36.672,210.191 36.656,209.962 35.968 C 209.923 35.853,209.848 35.925,209.795 36.129 M231.833 36.210 C 231.833 36.356,231.702 36.510,231.542 36.552 C 231.268 36.623,231.269 36.629,231.547 36.647 C 231.848 36.667,232.127 36.239,231.937 36.048 C 231.880 35.991,231.833 36.064,231.833 36.210 M36.760 36.422 C 36.582 36.557,36.511 36.667,36.603 36.667 C 36.695 36.667,36.915 36.557,37.093 36.422 C 37.271 36.287,37.342 36.177,37.250 36.177 C 37.158 36.177,36.938 36.287,36.760 36.422 M237.625 36.292 C 239.665 36.318,243.002 36.318,245.042 36.292 C 247.081 36.265,245.412 36.243,241.333 36.243 C 237.254 36.243,235.585 36.265,237.625 36.292 M34.667 37.083 C 34.346 37.207,34.206 37.314,34.356 37.321 C 34.506 37.328,34.881 37.224,35.189 37.090 C 35.892 36.785,35.456 36.779,34.667 37.083 M32.042 37.455 C 32.385 37.491,32.948 37.491,33.292 37.455 C 33.635 37.419,33.354 37.389,32.667 37.389 C 31.979 37.389,31.698 37.419,32.042 37.455 M29.083 37.889 C 28.808 38.088,28.398 38.381,28.171 38.542 C 27.945 38.702,27.832 38.831,27.921 38.828 C 28.010 38.825,28.495 38.525,28.998 38.161 C 29.501 37.798,29.838 37.506,29.748 37.514 C 29.657 37.522,29.358 37.691,29.083 37.889 M256.386 38.291 C 257.927 38.319,260.402 38.319,261.886 38.291 C 263.369 38.264,262.108 38.241,259.083 38.241 C 256.058 38.241,254.844 38.264,256.386 38.291 M23.535 38.739 C 23.424 38.983,23.336 39.310,23.340 39.466 C 23.343 39.622,23.458 39.493,23.594 39.179 C 23.886 38.506,23.831 38.090,23.535 38.739 M172.583 38.667 L 171.917 38.786 172.532 38.810 C 172.870 38.823,173.193 38.758,173.250 38.667 C 173.307 38.575,173.330 38.511,173.302 38.524 C 173.273 38.537,172.950 38.601,172.583 38.667 M189.917 38.667 L 189.250 38.786 189.865 38.810 C 190.204 38.823,190.527 38.758,190.583 38.667 C 190.640 38.575,190.663 38.511,190.635 38.524 C 190.607 38.537,190.283 38.601,189.917 38.667 M26.720 39.469 C 26.245 39.804,25.883 40.105,25.916 40.139 C 25.992 40.215,27.448 39.220,27.585 38.998 C 27.728 38.765,27.685 38.789,26.720 39.469 M23.195 40.425 C 23.168 41.073,23.381 41.500,23.732 41.500 C 23.823 41.500,23.774 41.406,23.624 41.292 C 23.473 41.177,23.322 40.783,23.287 40.417 L 23.223 39.750 23.195 40.425 M24.752 40.766 C 24.295 41.078,24.032 41.332,24.169 41.331 C 24.305 41.329,24.717 41.070,25.083 40.754 C 25.918 40.035,25.819 40.038,24.752 40.766 " stroke="none" fill="#a6960b" fill-rule="evenodd"></path><path id="path3" d="M30.708 18.455 C 31.052 18.491,31.615 18.491,31.958 18.455 C 32.302 18.419,32.021 18.389,31.333 18.389 C 30.646 18.389,30.365 18.419,30.708 18.455 M27.404 18.736 C 27.218 18.866,26.770 19.027,26.408 19.094 C 26.046 19.160,25.571 19.354,25.353 19.524 C 25.134 19.694,24.827 19.833,24.670 19.833 C 24.513 19.833,24.211 19.983,24.000 20.167 C 23.789 20.350,23.552 20.500,23.474 20.500 C 23.131 20.500,20.500 23.082,20.500 23.420 C 20.500 23.549,20.359 23.731,20.186 23.823 C 20.013 23.915,19.824 24.248,19.765 24.562 C 19.706 24.876,19.547 25.225,19.412 25.337 C 19.254 25.468,19.174 25.816,19.186 26.312 L 19.205 27.083 19.338 26.500 C 19.934 23.879,22.737 20.629,25.021 19.911 C 25.239 19.843,25.678 19.647,25.998 19.477 C 26.317 19.306,26.753 19.167,26.967 19.167 C 27.180 19.167,27.519 19.076,27.719 18.966 C 27.920 18.856,28.421 18.716,28.833 18.655 L 29.583 18.545 28.662 18.522 C 28.103 18.509,27.608 18.593,27.404 18.736 M33.833 18.655 C 34.246 18.716,34.747 18.856,34.947 18.966 C 35.148 19.076,35.486 19.167,35.700 19.167 C 35.913 19.167,36.350 19.306,36.669 19.477 C 36.989 19.647,37.428 19.843,37.646 19.911 C 39.929 20.629,42.733 23.879,43.329 26.500 L 43.462 27.083 43.481 26.312 C 43.493 25.816,43.412 25.468,43.254 25.337 C 43.119 25.225,42.961 24.876,42.902 24.562 C 42.843 24.248,42.653 23.915,42.481 23.823 C 42.308 23.731,42.167 23.549,42.167 23.420 C 42.167 23.082,39.536 20.500,39.192 20.500 C 39.115 20.500,38.878 20.350,38.667 20.167 C 38.455 19.983,38.154 19.833,37.997 19.833 C 37.840 19.833,37.533 19.694,37.314 19.524 C 37.096 19.354,36.620 19.160,36.259 19.094 C 35.897 19.027,35.449 18.866,35.263 18.736 C 35.059 18.593,34.563 18.509,34.005 18.522 L 33.083 18.545 33.833 18.655 M171.458 21.176 C 170.981 21.461,171.011 38.572,171.489 38.827 C 172.178 39.196,173.504 38.996,173.495 38.524 C 173.490 38.281,173.471 38.283,173.320 38.542 C 173.105 38.910,172.209 38.928,171.704 38.574 L 171.333 38.314 171.333 30.016 C 171.333 22.189,171.351 21.703,171.638 21.442 C 172.050 21.070,173.096 21.080,173.331 21.458 C 173.497 21.725,173.508 21.721,173.463 21.417 C 173.406 21.032,171.986 20.861,171.458 21.176 M188.792 21.176 C 188.314 21.461,188.344 38.572,188.822 38.827 C 189.512 39.196,190.837 38.996,190.828 38.524 C 190.824 38.281,190.804 38.283,190.653 38.542 C 190.439 38.910,189.542 38.928,189.037 38.574 L 188.667 38.314 188.667 30.016 C 188.667 22.189,188.684 21.703,188.971 21.442 C 189.383 21.070,190.429 21.080,190.665 21.458 C 190.830 21.725,190.841 21.721,190.796 21.417 C 190.739 21.032,189.319 20.861,188.792 21.176 M262.942 21.305 C 262.557 21.731,262.518 33.670,262.902 33.988 C 263.260 34.285,264.244 34.393,264.644 34.179 C 265.071 33.950,265.220 21.620,264.800 21.200 C 264.483 20.883,263.262 20.952,262.942 21.305 M264.633 21.367 C 264.782 21.515,264.833 23.144,264.833 27.667 C 264.833 34.207,264.839 34.167,263.979 34.167 C 262.994 34.167,263.000 34.205,263.000 27.727 C 263.000 23.968,263.063 21.694,263.173 21.489 C 263.370 21.120,264.308 21.041,264.633 21.367 M200.667 22.021 C 200.438 22.123,200.025 22.272,199.750 22.350 C 199.422 22.445,199.594 22.455,200.250 22.381 C 204.016 21.958,207.106 23.101,208.006 25.250 C 208.138 25.565,208.146 25.562,208.156 25.200 C 208.166 24.827,206.703 23.167,206.364 23.167 C 206.280 23.167,206.030 23.024,205.808 22.849 C 205.585 22.674,205.031 22.477,204.577 22.411 C 204.122 22.345,203.655 22.216,203.539 22.123 C 203.231 21.877,201.152 21.803,200.667 22.021 M255.083 21.954 C 254.900 21.999,254.675 22.094,254.583 22.166 C 254.492 22.237,254.107 22.347,253.728 22.409 C 251.365 22.799,249.409 27.025,250.833 28.667 C 251.017 28.878,251.167 29.139,251.167 29.246 C 251.167 29.527,252.451 30.589,253.384 31.079 C 254.446 31.638,256.496 31.682,257.456 31.167 C 257.799 30.983,258.155 30.833,258.248 30.833 C 258.640 30.831,260.167 29.122,260.167 28.684 C 260.167 28.547,259.979 28.689,259.750 29.000 C 259.521 29.311,259.333 29.615,259.333 29.677 C 259.333 29.895,257.947 30.703,257.036 31.016 C 251.898 32.784,248.282 26.105,252.739 23.080 C 253.942 22.264,257.163 22.159,257.991 22.909 C 258.148 23.051,258.341 23.167,258.421 23.167 C 258.620 23.167,259.500 24.026,259.500 24.221 C 259.500 24.308,259.614 24.463,259.752 24.565 C 260.070 24.798,260.338 26.400,260.251 27.545 C 260.214 28.024,260.224 28.229,260.273 28.000 C 260.322 27.771,260.430 27.512,260.514 27.425 C 260.709 27.222,260.713 26.215,260.519 26.095 C 260.438 26.045,260.321 25.667,260.259 25.255 C 260.198 24.843,260.058 24.448,259.948 24.378 C 259.839 24.308,259.649 24.054,259.526 23.815 C 259.403 23.576,259.047 23.258,258.734 23.109 C 258.422 22.961,258.167 22.771,258.167 22.688 C 258.167 22.606,257.829 22.487,257.416 22.425 C 257.003 22.363,256.459 22.205,256.207 22.074 C 255.733 21.827,255.641 21.817,255.083 21.954 M221.042 22.458 C 222.577 22.486,225.090 22.486,226.625 22.458 C 228.160 22.431,226.904 22.408,223.833 22.408 C 220.762 22.408,219.506 22.431,221.042 22.458 M160.700 22.700 C 160.590 22.810,160.500 23.245,160.500 23.667 C 160.500 24.820,160.536 24.833,163.700 24.833 L 166.500 24.833 166.498 25.542 C 166.493 26.923,166.442 26.979,165.107 27.043 L 163.917 27.100 165.208 27.134 C 165.919 27.152,166.500 27.139,166.500 27.106 C 166.500 26.921,166.826 25.377,166.912 25.155 C 167.103 24.658,166.281 24.500,163.510 24.500 C 160.672 24.500,160.667 24.498,160.667 23.603 C 160.667 22.870,160.864 22.833,164.763 22.833 C 169.103 22.833,168.880 22.736,168.876 24.628 C 168.873 25.852,168.880 25.875,169.007 25.083 C 169.080 24.625,169.189 24.061,169.249 23.830 C 169.326 23.532,169.253 23.277,169.000 22.955 L 168.642 22.500 164.771 22.500 C 161.982 22.500,160.844 22.556,160.700 22.700 M178.033 22.700 C 177.923 22.810,177.833 23.245,177.833 23.667 C 177.833 24.820,177.869 24.833,181.033 24.833 L 183.833 24.833 183.831 25.542 C 183.827 26.923,183.775 26.979,182.441 27.043 L 181.250 27.100 182.542 27.134 C 183.252 27.152,183.833 27.139,183.833 27.106 C 183.833 26.921,184.159 25.377,184.245 25.155 C 184.437 24.658,183.614 24.500,180.843 24.500 C 178.006 24.500,178.000 24.498,178.000 23.603 C 178.000 22.870,178.197 22.833,182.096 22.833 C 186.436 22.833,186.213 22.736,186.209 24.628 C 186.206 25.852,186.213 25.875,186.340 25.083 C 186.413 24.625,186.522 24.061,186.582 23.830 C 186.659 23.532,186.587 23.277,186.333 22.955 L 185.976 22.500 182.105 22.500 C 179.316 22.500,178.177 22.556,178.033 22.700 M198.347 22.734 C 198.240 22.862,197.971 23.013,197.749 23.069 C 197.328 23.174,196.500 23.903,196.500 24.168 C 196.500 24.253,196.359 24.397,196.186 24.490 C 196.011 24.583,195.821 24.929,195.757 25.270 C 195.694 25.607,195.526 26.060,195.383 26.278 C 195.109 26.696,195.163 27.954,195.463 28.149 C 195.549 28.205,195.670 28.529,195.733 28.870 C 195.795 29.212,195.945 29.549,196.066 29.620 C 196.186 29.692,196.370 29.913,196.475 30.113 C 196.707 30.555,198.010 31.456,198.631 31.605 C 198.880 31.664,199.178 31.787,199.293 31.878 C 199.408 31.968,199.745 32.092,200.043 32.152 C 200.577 32.261,200.584 32.274,200.634 33.324 C 200.699 34.704,200.807 34.661,197.242 34.664 C 194.097 34.667,193.833 34.724,193.833 35.404 C 193.833 35.728,193.843 35.727,194.093 35.370 C 194.345 35.011,194.441 35.000,197.354 35.000 C 201.069 35.000,201.000 35.030,201.000 33.429 L 201.000 32.203 200.372 31.952 C 200.027 31.813,199.426 31.615,199.037 31.510 C 197.631 31.131,195.833 29.485,195.833 28.575 C 195.833 28.378,195.747 27.969,195.642 27.667 C 195.504 27.273,195.500 26.972,195.626 26.601 C 195.723 26.316,195.847 25.816,195.903 25.490 C 196.016 24.824,197.092 23.610,197.917 23.218 C 199.049 22.679,199.287 22.505,198.895 22.502 C 198.700 22.501,198.454 22.605,198.347 22.734 M235.250 22.948 C 234.657 23.265,234.506 23.464,234.503 23.933 C 234.496 24.798,234.716 24.833,240.055 24.833 L 245.000 24.833 245.000 26.409 C 245.000 27.275,244.887 28.416,244.750 28.944 C 244.612 29.471,244.507 30.469,244.516 31.160 L 244.532 32.417 244.792 30.917 C 244.935 30.092,245.059 28.367,245.068 27.083 L 245.083 24.750 240.173 24.667 L 235.263 24.583 235.014 24.141 C 234.477 23.182,234.573 23.167,241.000 23.167 C 247.928 23.167,247.230 22.825,247.007 26.106 C 246.914 27.468,246.849 29.108,246.862 29.750 L 246.886 30.917 247.013 29.833 C 247.652 24.385,247.613 23.362,246.750 22.950 C 245.882 22.536,236.022 22.534,235.250 22.948 M202.196 24.146 C 203.689 24.233,204.216 24.326,204.459 24.546 C 204.634 24.704,204.857 24.833,204.957 24.833 C 205.056 24.833,205.332 25.077,205.571 25.375 C 205.810 25.673,206.079 26.007,206.169 26.118 C 206.432 26.440,206.370 27.929,206.083 28.167 C 205.946 28.281,205.833 28.469,205.833 28.584 C 205.833 29.011,204.671 29.691,203.702 29.832 C 203.178 29.908,202.619 30.023,202.458 30.086 C 202.209 30.186,201.556 30.106,199.555 29.734 C 199.031 29.637,197.701 28.243,197.619 27.706 C 197.554 27.274,197.549 27.278,197.525 27.779 C 197.505 28.197,197.650 28.457,198.222 29.029 C 200.826 31.630,206.500 30.388,206.500 27.216 C 206.500 25.084,205.205 24.126,202.250 24.070 L 200.250 24.033 202.196 24.146 M255.125 24.118 C 255.331 24.157,255.669 24.157,255.875 24.118 C 256.081 24.078,255.912 24.045,255.500 24.045 C 255.088 24.045,254.919 24.078,255.125 24.118 M199.167 24.500 C 198.938 24.679,198.666 24.828,198.564 24.830 C 198.264 24.836,197.498 26.066,197.519 26.509 C 197.536 26.855,197.551 26.866,197.622 26.583 C 197.740 26.117,198.646 25.005,199.066 24.813 C 199.958 24.404,200.268 24.172,199.917 24.173 C 199.733 24.174,199.396 24.321,199.167 24.500 M223.056 24.290 L 227.862 24.338 227.806 25.420 C 227.771 26.090,227.813 26.480,227.917 26.445 C 228.008 26.414,228.083 25.908,228.083 25.319 L 228.083 24.250 223.167 24.246 L 218.250 24.242 223.056 24.290 M253.465 24.736 C 251.894 26.179,252.549 28.877,254.580 29.333 C 257.724 30.037,259.826 27.123,257.755 24.931 C 257.192 24.335,256.917 24.160,256.630 24.215 L 256.250 24.288 256.625 24.311 C 256.831 24.323,257.000 24.410,257.000 24.504 C 257.000 24.598,257.188 24.746,257.417 24.833 C 257.646 24.920,257.833 25.097,257.833 25.225 C 257.833 25.354,257.946 25.553,258.083 25.667 C 258.631 26.121,258.407 27.495,257.639 28.391 L 256.947 29.198 255.502 29.141 C 252.555 29.024,251.736 26.461,254.042 24.567 C 254.165 24.466,254.374 24.341,254.508 24.288 C 254.677 24.222,254.650 24.189,254.417 24.181 C 254.233 24.174,253.805 24.424,253.465 24.736 M208.268 26.436 C 208.383 27.519,208.103 29.057,207.715 29.476 C 207.551 29.653,207.267 29.979,207.083 30.200 C 206.650 30.721,205.361 31.393,204.000 31.806 L 202.917 32.135 202.866 33.187 C 202.772 35.142,202.503 35.000,206.303 35.000 C 209.841 35.000,210.000 35.037,210.000 35.846 C 210.000 36.679,210.064 36.673,201.822 36.627 L 194.098 36.583 193.975 36.167 C 193.860 35.779,193.854 35.784,193.884 36.250 L 193.917 36.750 202.000 36.750 L 210.083 36.750 210.135 35.945 C 210.216 34.673,210.200 34.667,206.917 34.667 C 202.881 34.667,203.000 34.705,203.000 33.414 C 203.000 32.326,203.108 32.167,203.848 32.167 C 204.024 32.167,204.448 32.017,204.790 31.833 C 205.132 31.650,205.546 31.500,205.711 31.500 C 205.876 31.500,206.052 31.393,206.102 31.262 C 206.152 31.131,206.413 30.947,206.681 30.853 C 206.953 30.759,207.322 30.422,207.517 30.092 C 207.709 29.766,207.927 29.500,208.002 29.500 C 208.076 29.500,208.188 29.197,208.251 28.828 C 208.313 28.458,208.479 27.926,208.619 27.646 C 208.835 27.213,208.839 27.069,208.651 26.693 C 208.528 26.449,208.372 26.100,208.303 25.917 C 208.235 25.733,208.219 25.967,208.268 26.436 M168.695 26.391 C 168.679 26.652,168.566 27.064,168.444 27.308 C 168.321 27.551,168.067 28.087,167.880 28.500 C 167.172 30.054,166.618 31.092,166.355 31.356 C 166.206 31.506,165.568 32.160,164.937 32.810 C 164.307 33.459,163.639 34.039,163.452 34.098 C 163.266 34.158,162.694 34.497,162.182 34.853 C 161.077 35.620,160.943 35.635,160.409 35.059 C 159.771 34.371,159.894 34.153,161.430 33.260 C 163.238 32.209,165.833 29.631,165.833 28.886 C 165.833 28.781,162.951 28.925,161.537 29.101 C 160.508 29.229,160.000 28.918,160.000 28.161 C 160.000 27.497,160.285 27.355,161.758 27.288 C 162.967 27.232,162.944 27.228,161.500 27.238 L 159.917 27.250 159.865 28.059 C 159.785 29.326,160.093 29.562,161.687 29.454 C 162.386 29.406,163.112 29.285,163.301 29.184 C 163.490 29.083,164.081 29.006,164.614 29.013 C 165.147 29.020,165.490 29.064,165.375 29.110 C 165.260 29.157,165.167 29.291,165.167 29.409 C 165.167 29.834,162.627 32.500,162.222 32.500 C 162.141 32.500,161.946 32.650,161.789 32.833 C 161.632 33.017,161.386 33.167,161.243 33.167 C 160.759 33.167,159.833 34.052,159.833 34.516 C 159.833 35.467,161.249 35.927,162.037 35.232 C 162.246 35.048,162.604 34.804,162.833 34.690 C 163.785 34.218,164.167 33.974,164.167 33.835 C 164.167 33.755,164.313 33.643,164.491 33.586 C 164.670 33.529,164.863 33.337,164.919 33.158 C 164.976 32.979,165.130 32.833,165.261 32.833 C 165.393 32.833,165.501 32.740,165.502 32.625 C 165.503 32.510,165.802 32.154,166.167 31.833 C 166.532 31.512,166.831 31.168,166.832 31.067 C 166.833 30.967,166.976 30.756,167.150 30.598 C 167.324 30.441,167.514 30.061,167.571 29.756 C 167.629 29.450,167.777 29.116,167.901 29.013 C 168.025 28.910,168.174 28.589,168.232 28.299 C 168.290 28.009,168.454 27.643,168.596 27.486 C 168.768 27.296,168.833 26.982,168.789 26.558 C 168.740 26.080,168.716 26.037,168.695 26.391 M186.028 26.391 C 186.013 26.652,185.900 27.064,185.777 27.308 C 185.654 27.551,185.401 28.087,185.213 28.500 C 184.506 30.054,183.952 31.092,183.689 31.356 C 183.539 31.506,182.901 32.160,182.271 32.810 C 181.640 33.459,180.972 34.039,180.786 34.098 C 180.599 34.158,180.028 34.497,179.515 34.853 C 178.411 35.620,178.276 35.635,177.742 35.059 C 177.104 34.371,177.228 34.153,178.764 33.260 C 180.571 32.209,183.167 29.631,183.167 28.886 C 183.167 28.781,180.285 28.925,178.870 29.101 C 177.842 29.229,177.333 28.918,177.333 28.161 C 177.333 27.497,177.618 27.355,179.091 27.288 C 180.300 27.232,180.277 27.228,178.833 27.238 L 177.250 27.250 177.198 28.059 C 177.118 29.326,177.426 29.562,179.020 29.454 C 179.719 29.406,180.446 29.285,180.635 29.184 C 180.823 29.083,181.414 29.006,181.947 29.013 C 182.480 29.020,182.823 29.064,182.708 29.110 C 182.594 29.157,182.500 29.291,182.500 29.409 C 182.500 29.834,179.961 32.500,179.555 32.500 C 179.474 32.500,179.279 32.650,179.122 32.833 C 178.965 33.017,178.719 33.167,178.576 33.167 C 178.092 33.167,177.167 34.052,177.167 34.516 C 177.167 35.467,178.583 35.927,179.370 35.232 C 179.579 35.048,179.938 34.804,180.167 34.690 C 181.118 34.218,181.500 33.974,181.500 33.835 C 181.500 33.755,181.646 33.643,181.825 33.586 C 182.003 33.529,182.196 33.337,182.253 33.158 C 182.309 32.979,182.463 32.833,182.595 32.833 C 182.726 32.833,182.834 32.740,182.835 32.625 C 182.836 32.510,183.135 32.154,183.500 31.833 C 183.865 31.512,184.164 31.168,184.165 31.067 C 184.166 30.967,184.309 30.756,184.483 30.598 C 184.658 30.441,184.847 30.061,184.905 29.756 C 184.962 29.450,185.110 29.116,185.234 29.013 C 185.358 28.910,185.507 28.589,185.565 28.299 C 185.623 28.009,185.787 27.643,185.930 27.486 C 186.101 27.296,186.166 26.982,186.122 26.558 C 186.073 26.080,186.049 26.037,186.028 26.391 M217.944 26.611 C 217.883 26.672,217.834 26.803,217.836 26.903 C 217.838 27.025,217.878 27.022,217.961 26.894 C 218.028 26.790,218.233 26.668,218.417 26.622 C 218.739 26.541,218.739 26.538,218.403 26.519 C 218.212 26.509,218.006 26.550,217.944 26.611 M19.050 28.167 C 19.050 28.671,19.081 28.877,19.119 28.625 C 19.158 28.373,19.158 27.960,19.119 27.708 C 19.081 27.456,19.050 27.662,19.050 28.167 M43.545 28.000 C 43.545 28.412,43.578 28.581,43.618 28.375 C 43.657 28.169,43.657 27.831,43.618 27.625 C 43.578 27.419,43.545 27.587,43.545 28.000 M217.734 29.850 C 217.754 32.984,217.602 32.811,220.391 32.870 L 222.583 32.917 222.635 33.637 C 222.720 34.817,222.675 34.833,219.385 34.833 C 216.421 34.833,215.829 34.939,215.838 35.464 C 215.843 35.731,215.855 35.730,216.013 35.458 C 216.165 35.198,216.505 35.166,219.217 35.164 C 223.178 35.161,223.000 35.221,223.000 33.903 C 223.000 32.546,222.915 32.500,220.365 32.500 C 217.837 32.500,217.946 32.620,217.818 29.684 L 217.719 27.417 217.734 29.850 M173.554 27.917 C 173.585 28.008,174.113 28.121,174.728 28.167 C 175.871 28.252,176.159 28.429,176.164 29.053 C 176.171 29.818,175.881 30.000,174.661 30.000 C 174.022 30.000,173.500 30.056,173.500 30.125 C 173.499 30.386,175.909 30.156,176.125 29.874 C 176.409 29.505,176.387 28.651,176.083 28.217 C 175.814 27.833,173.433 27.550,173.554 27.917 M190.888 27.917 C 190.918 28.008,191.446 28.121,192.061 28.167 C 193.205 28.252,193.492 28.429,193.497 29.053 C 193.504 29.818,193.214 30.000,191.994 30.000 C 191.356 30.000,190.833 30.056,190.833 30.125 C 190.832 30.386,193.242 30.156,193.458 29.874 C 193.742 29.505,193.721 28.651,193.417 28.217 C 193.147 27.833,190.766 27.550,190.888 27.917 M229.952 27.883 C 229.854 28.141,229.400 28.167,224.918 28.167 L 219.992 28.167 219.829 28.594 C 219.085 30.551,219.374 30.667,224.978 30.667 C 229.944 30.667,230.426 30.732,230.600 31.425 C 230.815 32.279,230.441 32.411,227.622 32.471 C 224.738 32.533,224.840 32.479,224.836 33.958 C 224.833 35.227,224.306 35.050,228.417 35.158 L 231.917 35.250 231.917 35.917 L 231.917 36.583 224.008 36.583 L 216.098 36.583 215.975 36.167 C 215.860 35.779,215.854 35.784,215.884 36.250 L 215.917 36.750 224.000 36.750 L 232.083 36.750 232.134 35.958 C 232.202 34.892,232.011 34.833,228.478 34.833 C 225.117 34.833,225.000 34.794,225.000 33.672 L 225.000 32.856 227.680 32.803 C 230.666 32.744,230.833 32.678,230.833 31.563 C 230.833 30.496,230.853 30.500,225.238 30.500 L 220.167 30.500 220.167 29.417 L 220.167 28.333 224.958 28.331 C 229.646 28.328,230.283 28.265,230.134 27.819 C 230.082 27.662,230.031 27.680,229.952 27.883 M43.333 29.630 C 43.333 29.884,43.232 30.240,43.108 30.421 C 42.984 30.602,42.831 30.964,42.767 31.225 C 42.438 32.578,38.702 36.167,37.623 36.167 C 37.474 36.167,37.311 36.235,37.259 36.319 C 37.175 36.454,34.952 37.204,34.083 37.390 C 33.900 37.429,34.069 37.470,34.459 37.481 C 34.882 37.492,35.418 37.366,35.790 37.167 C 36.132 36.983,36.576 36.833,36.777 36.833 C 36.978 36.833,37.256 36.720,37.395 36.581 C 37.534 36.442,37.879 36.282,38.163 36.226 C 38.446 36.169,38.753 35.983,38.845 35.811 C 38.937 35.640,39.089 35.500,39.184 35.500 C 39.646 35.500,42.167 33.152,42.167 32.721 C 42.167 32.607,42.306 32.379,42.477 32.215 C 42.647 32.051,42.838 31.701,42.901 31.438 C 42.965 31.175,43.125 30.851,43.258 30.718 C 43.478 30.498,43.614 29.167,43.417 29.167 C 43.371 29.167,43.333 29.375,43.333 29.630 M19.192 29.938 C 19.177 30.352,19.260 30.703,19.400 30.820 C 19.529 30.926,19.680 31.195,19.735 31.418 C 19.962 32.322,22.202 35.000,22.732 35.000 C 22.879 35.000,23.000 35.077,23.000 35.171 C 23.000 35.265,23.188 35.413,23.417 35.500 C 23.785 35.640,23.835 35.760,23.848 36.538 C 23.863 37.395,23.867 37.403,24.027 36.849 C 24.260 36.035,24.095 35.640,23.320 35.167 C 22.152 34.453,19.833 31.783,19.833 31.153 C 19.833 31.018,19.727 30.756,19.598 30.571 C 19.468 30.386,19.329 30.013,19.289 29.742 C 19.230 29.343,19.212 29.380,19.192 29.938 M246.630 32.111 C 246.515 33.490,245.642 34.026,244.708 33.290 C 244.570 33.181,244.500 33.184,244.500 33.301 C 244.500 33.483,245.414 34.000,245.736 34.000 C 246.328 34.000,246.833 33.153,246.833 32.160 C 246.833 30.905,246.732 30.880,246.630 32.111 M253.101 32.764 C 253.046 32.909,253.000 34.129,253.000 35.477 C 253.000 39.016,252.328 38.667,259.139 38.667 C 265.652 38.667,265.553 38.687,265.467 37.360 L 265.417 36.583 260.417 36.494 C 257.667 36.445,255.398 36.388,255.375 36.369 C 255.352 36.349,255.333 35.548,255.333 34.589 C 255.333 33.035,255.298 32.826,255.011 32.673 C 254.487 32.392,254.308 32.475,254.667 32.833 C 254.955 33.122,255.000 33.389,255.000 34.814 C 255.000 36.845,254.469 36.661,260.355 36.664 C 265.373 36.667,265.412 36.674,265.304 37.608 C 265.226 38.277,265.040 38.298,259.054 38.317 C 254.386 38.331,253.657 38.299,253.429 38.071 C 253.017 37.660,253.043 32.922,253.458 32.680 C 253.717 32.529,253.719 32.510,253.476 32.505 C 253.326 32.502,253.157 32.619,253.101 32.764 M233.279 34.610 C 233.217 34.672,233.174 34.916,233.183 35.153 L 233.200 35.583 233.316 35.167 L 233.432 34.750 241.341 34.750 L 249.250 34.750 249.302 35.375 C 249.382 36.346,249.355 36.349,241.046 36.297 C 233.936 36.252,233.630 36.237,233.403 35.926 C 233.220 35.676,233.167 35.660,233.167 35.859 C 233.167 36.657,233.268 36.667,241.362 36.667 C 250.004 36.667,249.571 36.739,249.469 35.309 L 249.417 34.583 241.404 34.540 C 236.998 34.516,233.341 34.548,233.279 34.610 M28.998 38.161 C 28.495 38.525,28.029 38.825,27.962 38.828 C 27.895 38.831,27.445 39.133,26.962 39.499 C 26.479 39.866,26.021 40.166,25.945 40.166 C 25.868 40.166,25.493 40.421,25.111 40.732 C 24.729 41.043,24.267 41.334,24.083 41.379 C 23.810 41.447,23.826 41.465,24.171 41.481 C 24.406 41.491,24.719 41.352,24.878 41.167 C 25.035 40.983,25.265 40.833,25.389 40.833 C 25.513 40.833,25.751 40.683,25.917 40.500 C 26.083 40.317,26.303 40.167,26.405 40.167 C 26.508 40.167,26.721 40.017,26.878 39.833 C 27.035 39.650,27.265 39.500,27.389 39.500 C 27.513 39.500,27.751 39.350,27.917 39.167 C 28.083 38.983,28.322 38.833,28.448 38.833 C 28.574 38.833,28.719 38.724,28.771 38.590 C 28.822 38.456,29.026 38.297,29.224 38.237 C 29.422 38.176,29.699 38.026,29.840 37.903 C 30.009 37.755,30.686 37.661,31.840 37.625 L 33.583 37.570 31.748 37.535 L 29.912 37.500 28.998 38.161 M23.452 38.297 C 23.054 39.126,22.971 41.343,23.333 41.468 C 23.549 41.542,23.551 41.515,23.352 41.274 C 23.068 40.930,23.211 39.387,23.597 38.641 C 23.738 38.368,23.830 38.039,23.802 37.911 C 23.773 37.782,23.616 37.956,23.452 38.297 " stroke="none" fill="#ceb904" fill-rule="evenodd"></path><path id="path4" d="M28.430 18.914 C 28.070 19.042,27.470 19.196,27.096 19.256 C 26.723 19.316,26.267 19.458,26.083 19.572 C 25.900 19.685,25.506 19.862,25.208 19.964 C 24.402 20.240,23.014 21.209,21.957 22.232 C 17.869 26.192,18.618 31.929,23.659 35.264 C 24.508 35.826,24.506 36.169,23.637 38.958 C 22.771 41.743,23.235 41.807,26.839 39.402 L 29.750 37.461 31.833 37.383 C 33.804 37.310,35.966 36.876,36.946 36.357 C 37.113 36.269,37.662 35.999,38.167 35.759 C 39.740 35.007,42.654 32.048,42.672 31.183 C 42.675 31.037,42.823 30.617,43.000 30.250 C 44.535 27.073,41.440 21.328,37.459 19.964 C 37.161 19.862,36.767 19.686,36.583 19.574 C 36.400 19.462,35.950 19.320,35.583 19.257 C 35.217 19.195,34.595 19.036,34.203 18.905 C 33.242 18.584,29.338 18.590,28.430 18.914 M33.250 19.001 C 33.617 19.086,34.404 19.261,35.000 19.390 C 35.596 19.519,36.308 19.747,36.583 19.895 C 36.858 20.043,37.180 20.165,37.298 20.166 C 37.417 20.166,37.735 20.317,38.007 20.500 C 38.278 20.683,38.722 20.983,38.993 21.167 C 39.265 21.350,39.530 21.500,39.583 21.500 C 39.738 21.500,41.833 23.703,41.833 23.865 C 41.833 23.946,41.963 24.210,42.122 24.453 C 43.079 25.912,43.373 28.143,42.833 29.833 C 42.650 30.407,42.500 30.940,42.500 31.016 C 42.500 31.688,39.670 34.755,38.583 35.261 C 38.308 35.389,37.971 35.558,37.833 35.637 C 36.227 36.561,34.378 37.018,31.733 37.145 C 30.189 37.219,29.464 37.321,29.257 37.493 C 29.096 37.627,28.831 37.815,28.668 37.910 C 28.505 38.005,27.339 38.774,26.077 39.619 C 24.815 40.464,23.719 41.116,23.641 41.068 C 23.422 40.932,23.477 40.132,23.741 39.626 C 23.872 39.374,24.031 38.812,24.095 38.376 C 24.158 37.940,24.313 37.381,24.438 37.133 C 24.946 36.134,24.736 35.631,23.478 34.833 C 22.879 34.454,20.943 32.472,20.709 32.000 C 20.595 31.771,20.432 31.471,20.347 31.333 C 19.258 29.585,19.350 26.218,20.533 24.474 C 20.698 24.231,20.833 23.961,20.833 23.875 C 20.833 23.706,22.923 21.500,23.083 21.500 C 23.137 21.500,23.402 21.350,23.673 21.167 C 23.945 20.983,24.389 20.683,24.660 20.500 C 24.931 20.317,25.250 20.166,25.368 20.166 C 25.487 20.165,25.808 20.043,26.083 19.895 C 26.358 19.747,27.071 19.519,27.667 19.388 C 28.262 19.258,29.012 19.089,29.333 19.012 C 30.131 18.820,32.437 18.814,33.250 19.001 M263.446 21.375 C 263.186 21.566,263.166 22.101,263.206 27.750 L 263.250 33.917 263.917 33.917 L 264.583 33.917 264.627 27.770 C 264.658 23.371,264.617 21.558,264.482 21.395 C 264.246 21.110,263.818 21.102,263.446 21.375 M171.747 21.532 C 171.701 21.652,171.683 25.537,171.707 30.167 L 171.750 38.583 172.500 38.583 L 173.250 38.583 173.340 34.250 C 173.446 29.179,173.267 29.833,174.550 29.833 C 175.664 29.833,176.000 29.659,176.000 29.083 C 176.000 28.507,175.664 28.333,174.550 28.333 C 173.273 28.333,173.450 28.848,173.342 24.833 L 173.250 21.417 172.540 21.365 C 172.070 21.331,171.802 21.388,171.747 21.532 M189.080 21.532 C 189.034 21.652,189.016 25.537,189.040 30.167 L 189.083 38.583 189.833 38.583 L 190.583 38.583 190.674 34.250 C 190.780 29.179,190.600 29.833,191.883 29.833 C 192.997 29.833,193.333 29.659,193.333 29.083 C 193.333 28.507,192.997 28.333,191.883 28.333 C 190.606 28.333,190.784 28.848,190.675 24.833 L 190.583 21.417 189.873 21.365 C 189.403 21.331,189.135 21.388,189.080 21.532 M173.002 24.625 C 173.006 28.555,173.005 28.553,174.587 28.667 C 175.611 28.740,175.750 28.790,175.750 29.083 C 175.750 29.377,175.611 29.427,174.587 29.500 C 172.969 29.616,173.005 29.502,173.002 34.469 L 173.000 38.522 172.542 38.469 L 172.083 38.417 172.040 30.167 C 171.993 21.171,171.972 21.500,172.578 21.500 L 173.000 21.500 173.002 24.625 M190.336 24.625 C 190.339 28.555,190.338 28.553,191.921 28.667 C 192.944 28.740,193.083 28.790,193.083 29.083 C 193.083 29.377,192.944 29.427,191.921 29.500 C 190.302 29.616,190.339 29.502,190.336 34.469 L 190.333 38.522 189.875 38.469 L 189.417 38.417 189.373 30.167 C 189.326 21.171,189.306 21.500,189.911 21.500 L 190.333 21.500 190.336 24.625 M264.500 27.667 L 264.500 33.833 264.000 33.833 L 263.500 33.833 263.500 27.667 L 263.500 21.500 264.000 21.500 L 264.500 21.500 264.500 27.667 M200.250 22.571 C 196.982 23.117,195.337 25.205,195.889 28.107 C 196.075 29.090,197.098 30.667,197.548 30.667 C 197.631 30.667,197.900 30.810,198.147 30.986 C 198.393 31.161,198.892 31.359,199.256 31.425 C 199.619 31.491,200.198 31.686,200.542 31.859 L 201.167 32.173 201.167 33.498 C 201.167 35.214,201.273 35.167,197.448 35.167 C 194.047 35.167,193.756 35.248,194.139 36.088 L 194.326 36.500 202.001 36.500 L 209.675 36.500 209.841 36.063 C 210.161 35.220,209.950 35.167,206.309 35.167 L 202.992 35.167 202.829 34.739 C 202.198 33.078,202.697 31.952,204.250 31.539 C 207.167 30.762,208.435 29.007,208.088 26.226 C 207.975 25.321,207.034 23.851,206.333 23.485 C 205.278 22.933,204.401 22.651,203.280 22.504 C 201.795 22.310,201.820 22.309,200.250 22.571 M254.000 22.648 C 250.422 23.453,249.704 28.594,252.917 30.408 C 255.833 32.055,259.649 30.568,260.074 27.619 C 260.225 26.570,260.032 25.093,259.690 24.674 C 259.539 24.490,259.289 24.160,259.132 23.940 C 258.348 22.837,255.901 22.221,254.000 22.648 M205.374 23.300 C 209.359 25.320,208.514 30.689,204.119 31.272 C 202.802 31.447,202.500 31.848,202.500 33.420 C 202.500 35.422,202.350 35.333,205.735 35.333 C 208.843 35.333,209.667 35.421,209.667 35.753 C 209.667 36.141,209.179 36.167,201.935 36.167 C 196.157 36.167,194.670 36.122,194.423 35.942 C 193.858 35.529,194.485 35.419,197.910 35.333 L 201.236 35.250 201.351 34.833 C 201.500 34.297,201.525 32.695,201.393 32.202 C 201.265 31.724,200.655 31.402,199.581 31.243 C 199.124 31.175,198.571 30.980,198.353 30.810 C 198.134 30.639,197.888 30.500,197.805 30.500 C 197.669 30.500,197.129 29.972,196.516 29.239 C 195.340 27.834,196.399 24.105,198.149 23.487 C 198.388 23.402,198.733 23.242,198.917 23.131 C 199.946 22.508,204.022 22.615,205.374 23.300 M218.066 22.902 C 218.015 23.034,217.998 23.317,218.028 23.530 L 218.083 23.917 223.167 24.009 C 225.963 24.059,228.269 24.115,228.292 24.134 C 228.494 24.295,228.295 26.479,228.070 26.566 C 227.925 26.621,225.690 26.667,223.103 26.667 C 219.667 26.667,218.346 26.721,218.200 26.867 C 218.063 27.004,218.000 27.836,218.000 29.527 C 218.000 32.502,217.837 32.333,220.719 32.333 C 223.195 32.333,223.203 32.339,223.133 33.943 L 223.083 35.083 219.716 35.167 C 216.137 35.255,215.876 35.318,216.060 36.051 C 216.212 36.655,216.306 36.662,224.000 36.662 C 231.741 36.662,231.757 36.661,231.912 36.043 C 232.097 35.307,231.863 35.253,228.250 35.196 L 224.850 35.142 224.735 34.378 C 224.672 33.958,224.687 33.344,224.769 33.015 L 224.917 32.417 227.433 32.333 C 229.963 32.250,230.500 32.116,230.500 31.572 C 230.500 30.905,229.954 30.833,224.891 30.833 C 219.206 30.833,219.419 30.894,219.534 29.307 C 219.629 28.003,219.257 28.093,224.889 28.000 L 229.917 27.917 229.917 25.333 L 229.917 22.750 224.037 22.706 C 219.045 22.669,218.144 22.699,218.066 22.902 M257.702 23.182 C 257.950 23.357,258.215 23.500,258.290 23.500 C 258.365 23.500,258.573 23.669,258.752 23.875 C 260.482 25.861,260.290 28.459,258.299 30.018 C 257.178 30.896,254.078 30.979,253.036 30.159 C 252.808 29.980,252.538 29.830,252.436 29.826 C 252.172 29.816,251.500 28.713,251.384 28.099 C 251.330 27.816,251.223 27.458,251.145 27.305 C 250.659 26.352,251.818 24.041,253.178 23.251 C 254.263 22.622,256.849 22.582,257.702 23.182 M229.753 23.208 C 229.804 23.415,229.825 24.521,229.798 25.667 L 229.750 27.750 224.750 27.833 C 218.962 27.930,219.333 27.823,219.333 29.395 C 219.333 31.367,218.961 31.236,224.861 31.333 C 229.207 31.405,229.917 31.452,229.917 31.667 C 229.917 31.876,229.502 31.924,227.369 31.963 L 224.822 32.009 224.661 32.432 C 224.572 32.665,224.500 33.332,224.500 33.916 C 224.500 35.532,224.422 35.500,228.345 35.500 C 231.742 35.500,232.040 35.560,231.467 36.133 C 231.062 36.538,216.551 36.407,216.332 35.998 C 216.079 35.525,216.136 35.516,219.784 35.463 C 223.468 35.410,223.377 35.447,223.457 33.958 C 223.556 32.135,223.504 32.098,220.662 32.000 L 218.250 31.917 218.250 29.500 L 218.250 27.083 223.183 27.000 C 228.954 26.903,228.667 26.991,228.667 25.319 C 228.667 23.767,228.917 23.833,223.094 23.833 L 218.167 23.833 218.167 23.444 C 218.167 22.828,218.111 22.833,224.025 22.833 L 229.660 22.833 229.753 23.208 M161.139 23.112 C 160.766 23.211,160.630 23.620,160.840 24.012 C 160.998 24.308,161.216 24.334,163.631 24.336 C 167.316 24.339,167.359 24.360,166.897 25.973 C 166.508 27.329,166.645 27.272,163.542 27.379 C 160.323 27.489,160.167 27.526,160.167 28.179 C 160.167 28.955,160.526 29.030,163.162 28.805 C 165.691 28.588,166.147 28.676,165.704 29.296 C 165.591 29.454,165.431 29.733,165.348 29.917 C 164.942 30.813,162.790 32.717,161.125 33.653 C 160.079 34.240,159.995 34.419,160.506 34.969 C 160.917 35.410,161.163 35.425,161.688 35.042 C 162.199 34.668,162.607 34.415,163.333 34.019 C 164.287 33.499,166.434 31.137,167.014 29.968 C 167.301 29.390,167.603 28.785,167.686 28.625 C 168.488 27.068,169.044 24.038,168.660 23.320 C 168.496 23.014,162.172 22.839,161.139 23.112 M178.473 23.112 C 178.099 23.211,177.963 23.620,178.173 24.012 C 178.332 24.308,178.550 24.334,180.964 24.336 C 184.650 24.339,184.693 24.360,184.230 25.973 C 183.841 27.329,183.979 27.272,180.876 27.379 C 177.656 27.489,177.500 27.526,177.500 28.179 C 177.500 28.955,177.860 29.030,180.496 28.805 C 183.024 28.588,183.480 28.676,183.038 29.296 C 182.925 29.454,182.765 29.733,182.682 29.917 C 182.276 30.813,180.124 32.717,178.458 33.653 C 177.412 34.240,177.328 34.419,177.840 34.969 C 178.251 35.410,178.496 35.425,179.021 35.042 C 179.533 34.668,179.941 34.415,180.667 34.019 C 181.621 33.499,183.768 31.137,184.348 29.968 C 184.634 29.390,184.937 28.785,185.019 28.625 C 185.821 27.068,186.377 24.038,185.993 23.320 C 185.829 23.014,179.506 22.839,178.473 23.112 M235.294 23.458 C 235.073 23.709,235.118 24.346,235.370 24.535 C 235.395 24.555,237.629 24.611,240.333 24.660 L 245.250 24.750 245.227 27.073 C 245.214 28.433,245.079 30.151,244.901 31.217 C 244.574 33.177,244.659 33.500,245.506 33.500 C 246.379 33.500,246.629 32.349,246.810 27.500 C 246.993 22.614,247.734 23.167,241.000 23.167 C 236.020 23.167,235.530 23.192,235.294 23.458 M168.466 24.464 C 168.527 25.749,167.915 27.822,166.978 29.500 C 166.901 29.637,166.735 29.975,166.608 30.250 C 166.143 31.257,162.639 34.500,162.014 34.500 C 161.939 34.500,161.677 34.659,161.430 34.852 C 161.184 35.046,160.967 35.177,160.948 35.144 C 160.929 35.111,160.772 34.916,160.599 34.710 C 160.287 34.340,160.288 34.336,160.768 34.127 C 162.965 33.171,166.371 29.740,166.069 28.789 C 165.965 28.461,165.877 28.453,163.439 28.556 C 160.834 28.665,160.259 28.574,160.643 28.112 C 160.873 27.834,162.032 27.667,164.750 27.517 L 166.583 27.417 166.958 26.673 C 167.369 25.858,167.463 24.530,167.133 24.200 C 166.994 24.061,166.095 23.999,164.175 23.997 C 161.455 23.995,160.628 23.858,161.167 23.501 C 161.318 23.400,162.799 23.351,164.917 23.376 L 168.417 23.417 168.466 24.464 M185.800 24.464 C 185.861 25.749,185.248 27.822,184.311 29.500 C 184.234 29.637,184.068 29.975,183.941 30.250 C 183.477 31.257,179.972 34.500,179.347 34.500 C 179.273 34.500,179.010 34.659,178.764 34.852 C 178.517 35.046,178.300 35.177,178.281 35.144 C 178.262 35.111,178.105 34.916,177.933 34.710 C 177.621 34.340,177.622 34.336,178.102 34.127 C 180.298 33.171,183.704 29.740,183.403 28.789 C 183.299 28.461,183.210 28.453,180.772 28.556 C 178.167 28.665,177.593 28.574,177.977 28.112 C 178.207 27.834,179.365 27.667,182.083 27.517 L 183.917 27.417 184.292 26.673 C 184.703 25.858,184.797 24.530,184.467 24.200 C 184.327 24.061,183.428 23.999,181.508 23.997 C 178.789 23.995,177.961 23.858,178.500 23.501 C 178.651 23.400,180.133 23.351,182.250 23.376 L 185.750 23.417 185.800 24.464 M200.282 23.676 C 197.223 24.509,196.039 27.234,197.875 29.212 C 199.201 30.642,202.869 31.361,204.172 30.448 C 204.393 30.293,204.713 30.167,204.882 30.167 C 205.267 30.167,206.638 28.756,206.772 28.222 C 207.578 25.011,204.162 22.618,200.282 23.676 M246.520 27.250 C 246.440 31.849,246.204 33.054,245.369 33.136 C 244.747 33.196,244.727 33.106,245.095 31.917 C 245.451 30.767,245.644 24.957,245.338 24.589 C 245.156 24.370,244.446 24.333,240.402 24.333 C 235.960 24.333,235.668 24.315,235.512 24.022 C 235.235 23.505,235.364 23.494,241.072 23.539 L 246.583 23.583 246.520 27.250 M254.589 23.753 C 250.880 24.555,251.651 30.000,255.473 30.000 C 259.060 30.000,260.250 24.622,256.833 23.850 C 256.512 23.777,256.100 23.678,255.917 23.628 C 255.733 23.578,255.136 23.635,254.589 23.753 M204.942 24.421 C 208.457 26.417,206.466 30.500,201.976 30.500 C 197.622 30.500,195.596 26.663,198.821 24.522 C 200.100 23.673,203.524 23.616,204.942 24.421 M257.295 24.275 C 259.540 25.681,258.971 28.887,256.366 29.512 C 253.753 30.139,251.828 28.123,252.653 25.624 C 253.140 24.149,255.840 23.364,257.295 24.275 M253.407 32.882 C 253.361 33.001,253.345 34.220,253.370 35.591 L 253.417 38.083 258.750 38.131 C 264.995 38.188,265.167 38.171,265.167 37.510 C 265.167 36.838,265.135 36.833,260.164 36.833 C 254.475 36.833,254.833 36.971,254.833 34.787 C 254.833 33.671,254.763 32.996,254.633 32.867 C 254.367 32.600,253.511 32.611,253.407 32.882 M254.507 34.667 C 254.645 37.362,254.201 37.165,260.146 37.172 C 264.277 37.177,265.313 37.298,264.886 37.725 C 264.827 37.784,262.240 37.833,259.139 37.833 L 253.500 37.833 253.500 35.444 C 253.500 32.931,253.532 32.790,254.076 32.868 C 254.388 32.912,254.424 33.067,254.507 34.667 M233.428 35.266 C 233.198 36.182,233.066 36.167,241.239 36.167 C 249.512 36.167,249.610 36.156,249.205 35.268 L 249.007 34.833 241.272 34.833 L 233.536 34.833 233.428 35.266 M248.575 35.193 C 249.877 35.786,249.250 35.838,241.292 35.793 C 233.641 35.750,233.065 35.704,234.019 35.211 C 234.569 34.926,247.953 34.910,248.575 35.193 " stroke="none" fill="#8c7c04" fill-rule="evenodd"></path></g></svg>