<svg width="19" height="20" viewBox="0 0 19 20" fill="none" xmlns="http://www.w3.org/2000/svg">
<rect x="0.75769" y="1.12207" width="17.7263" height="17.6253" rx="1.5" stroke="#5981BE"/>
<path d="M13.542 7.9436L14.2897 12.7776C14.3903 13.4283 13.8841 14.0152 13.2222 14.0152H6.01961C5.35766 14.0152 4.85147 13.4283 4.95212 12.7776L5.69984 7.9436C5.78091 7.41955 6.23426 7.03271 6.76733 7.03271H12.4745C13.0076 7.03271 13.4609 7.41955 13.542 7.9436Z" fill="#80A1D4" stroke="#5981BE" stroke-linecap="round" stroke-linejoin="round"/>
<path d="M10.701 5.42139C10.701 4.82811 10.2174 4.34717 9.62094 4.34717C9.02443 4.34717 8.54089 4.82811 8.54089 5.42139" stroke="#5981BE" stroke-linecap="round" stroke-linejoin="round"/>
<path d="M7.9967 10.7925H9.61678M9.61678 10.7925H11.2368M9.61678 10.7925V9.18115M9.61678 10.7925V12.4038" stroke="white" stroke-linecap="round" stroke-linejoin="round"/>
</svg>
