<svg width="28" height="28" viewBox="0 0 28 28" fill="none" xmlns="http://www.w3.org/2000/svg">
<circle cx="14" cy="14" r="14" fill="#5981BE"/>
<path d="M21 14C21 10.134 17.866 7 14 7C10.134 7 7 10.134 7 14C7 17.866 10.134 21 14 21C15.5723 21 17.0236 20.4816 18.1921 19.6063L19.4712 20.8854L20.8854 19.4712L19.6063 18.1921C20.4816 17.0236 21 15.5723 21 14ZM18.1714 16.7571L17.1286 15.7143L15.7143 17.1286L16.7571 18.1714C15.9669 18.6952 15.0188 19 14 19C11.2386 19 9 16.7614 9 14C9 11.2386 11.2386 9 14 9C16.7614 9 19 11.2386 19 14C19 15.0188 18.6952 15.9669 18.1714 16.7571Z" fill="white"/>
</svg>
