<svg width="30" height="31" viewBox="0 0 30 31" fill="none" xmlns="http://www.w3.org/2000/svg">
<g filter="url(#filter0_d_2276_7151)">
<rect y="0.799805" width="28" height="28" rx="14" fill="#5981BE"/>
<path d="M21 14.7998C21 10.9338 17.866 7.7998 14 7.7998C10.134 7.7998 7 10.9338 7 14.7998C7 18.6658 10.134 21.7998 14 21.7998C15.5723 21.7998 17.0236 21.2814 18.1921 20.4061L19.4712 21.6852L20.8854 20.271L19.6063 18.9919C20.4816 17.8234 21 16.3721 21 14.7998ZM18.1714 17.557L17.1286 16.5141L15.7143 17.9284L16.7571 18.9712C15.9669 19.495 15.0188 19.7998 14 19.7998C11.2386 19.7998 9 17.5612 9 14.7998C9 12.0384 11.2386 9.7998 14 9.7998C16.7614 9.7998 19 12.0384 19 14.7998C19 15.8186 18.6952 16.7667 18.1714 17.557Z" fill="white"/>
</g>
<defs>
<filter id="filter0_d_2276_7151" x="-0.6" y="0.199805" width="30" height="30" filterUnits="userSpaceOnUse" color-interpolation-filters="sRGB">
<feFlood flood-opacity="0" result="BackgroundImageFix"/>
<feColorMatrix in="SourceAlpha" type="matrix" values="0 0 0 0 0 0 0 0 0 0 0 0 0 0 0 0 0 0 127 0" result="hardAlpha"/>
<feOffset dx="0.4" dy="0.4"/>
<feGaussianBlur stdDeviation="0.5"/>
<feComposite in2="hardAlpha" operator="out"/>
<feColorMatrix type="matrix" values="0 0 0 0 0 0 0 0 0 0 0 0 0 0 0 0 0 0 0.25 0"/>
<feBlend mode="normal" in2="BackgroundImageFix" result="effect1_dropShadow_2276_7151"/>
<feBlend mode="normal" in="SourceGraphic" in2="effect1_dropShadow_2276_7151" result="shape"/>
</filter>
</defs>
</svg>
