<svg version="1.1" id="Layer_1" xmlns="http://www.w3.org/2000/svg" xmlns:xlink="http://www.w3.org/1999/xlink" x="0px" y="0px"
	 width="100%" viewBox="0 0 68 69" enable-background="new 0 0 68 69" xml:space="preserve">
<path fill="#FDDC00" opacity="1.000000" stroke="none" 
	d="
M1.000000,69.000000 
	C1.000000,46.382278 1.000000,23.764555 1.000000,1.073416 
	C23.568586,1.073416 46.137459,1.073416 69.000000,1.073416 
	C69.000000,23.020023 69.000000,45.041355 68.755829,67.110001 
	C67.674438,68.104881 66.837219,69.052437 66.000000,70.000000 
	C45.645771,70.000000 25.291542,70.000000 4.788902,69.765396 
	C3.426993,69.353859 2.213496,69.176933 1.000000,69.000000 
M50.134716,50.813953 
	C64.112862,42.385788 66.804558,28.783155 56.491409,18.690060 
	C45.433228,7.867829 24.208368,7.970053 13.298153,18.898085 
	C5.309695,26.899590 5.264981,38.030785 13.315717,45.956047 
	C15.297888,47.907326 17.635157,49.497879 19.791780,51.240208 
	C19.123707,54.547421 18.473722,57.765087 17.620125,61.990711 
	C19.570742,60.885170 20.505995,60.521080 21.238796,59.913013 
	C26.240751,55.762455 31.667927,53.532932 38.464333,53.883495 
	C42.064724,54.069206 45.776371,52.097847 50.134716,50.813953 
z"/>
<path fill="#040300" opacity="1.000000" stroke="none" 
	d="
M66.500000,70.000000 
	C66.837219,69.052437 67.674438,68.104881 68.755829,67.578659 
	C68.333336,68.666664 67.666664,69.333336 66.500000,70.000000 
z"/>
<path fill="#040300" opacity="1.000000" stroke="none" 
	d="
M1.000000,69.500000 
	C2.213496,69.176933 3.426993,69.353859 4.320245,69.765396 
	C3.000000,70.000000 2.000000,70.000000 1.000000,69.500000 
z"/>
<path fill="#40221D" opacity="1.000000" stroke="none" 
	d="
M49.786255,50.957119 
	C45.776371,52.097847 42.064724,54.069206 38.464333,53.883495 
	C31.667927,53.532932 26.240751,55.762455 21.238796,59.913013 
	C20.505995,60.521080 19.570742,60.885170 17.620125,61.990711 
	C18.473722,57.765087 19.123707,54.547421 19.791780,51.240208 
	C17.635157,49.497879 15.297888,47.907326 13.315717,45.956047 
	C5.264981,38.030785 5.309695,26.899590 13.298153,18.898085 
	C24.208368,7.970053 45.433228,7.867829 56.491409,18.690060 
	C66.804558,28.783155 64.112862,42.385788 49.786255,50.957119 
M30.245518,37.062294 
	C31.577429,37.937813 32.909340,38.813332 35.464226,40.492764 
	C34.638405,37.405415 34.406151,35.498062 33.624702,33.851330 
	C32.349739,31.164623 30.716505,28.647928 29.234436,26.059502 
	C27.739256,28.631876 26.077051,31.125252 24.809427,33.805256 
	C24.005680,35.504532 23.789301,37.481625 23.224083,39.663937 
	C26.154018,38.442024 27.817606,37.748238 30.245518,37.062294 
M54.405247,28.186947 
	C53.607208,27.848442 52.506794,27.004057 52.067894,27.266397 
	C50.757458,28.049677 49.706329,29.266785 48.580429,30.290373 
	C47.956581,28.604626 47.455154,27.249676 46.953728,25.894724 
	C46.519997,25.993248 46.086266,26.091770 45.652534,26.190294 
	C45.652534,30.601160 45.652534,35.012028 45.652534,39.422897 
	C46.120907,39.496666 46.589279,39.570438 47.057655,39.644211 
	C47.568340,38.028431 48.079025,36.412655 49.182720,32.920635 
	C50.991444,36.116077 52.203701,38.257748 53.415955,40.399418 
	C54.033897,39.865181 54.651840,39.330944 55.269783,38.796707 
	C53.952869,36.679985 52.635956,34.563259 51.163315,32.196228 
	C52.055798,31.148981 53.000149,30.040867 54.405247,28.186947 
M18.102674,31.654190 
	C18.324512,34.314571 18.546352,36.974957 18.768190,39.635338 
	C22.995012,35.955429 17.993406,29.230652 24.900127,26.645960 
	C21.479799,26.645960 18.059471,26.645960 13.762755,26.645960 
	C15.726406,28.517054 16.903561,29.638725 18.102674,31.654190 
M39.178806,34.128407 
	C39.178806,31.469097 39.178806,28.809788 39.178806,26.150478 
	C38.333172,26.116962 37.487534,26.083448 36.641899,26.049932 
	C36.480988,29.520372 36.128445,32.998665 36.270180,36.456699 
	C36.315605,37.565136 37.539841,39.384800 38.449158,39.536827 
	C40.226486,39.833973 42.161827,39.185997 44.683464,38.839828 
	C42.037086,36.988995 40.617374,35.996067 39.178806,34.128407 
z"/>
<path fill="#E7C604" opacity="1.000000" stroke="none" 
	d="
M29.863358,37.058372 
	C27.817606,37.748238 26.154018,38.442024 23.224083,39.663937 
	C23.789301,37.481625 24.005680,35.504532 24.809427,33.805256 
	C26.077051,31.125252 27.739256,28.631876 29.234436,26.059502 
	C30.716505,28.647928 32.349739,31.164623 33.624702,33.851330 
	C34.406151,35.498062 34.638405,37.405415 35.464226,40.492764 
	C32.909340,38.813332 31.577429,37.937813 29.863358,37.058372 
z"/>
<path fill="#F4D302" opacity="1.000000" stroke="none" 
	d="
M54.174873,28.559851 
	C53.000149,30.040867 52.055798,31.148981 51.163315,32.196228 
	C52.635956,34.563259 53.952869,36.679985 55.269783,38.796707 
	C54.651840,39.330944 54.033897,39.865181 53.415955,40.399418 
	C52.203701,38.257748 50.991444,36.116077 49.182720,32.920635 
	C48.079025,36.412655 47.568340,38.028431 47.057655,39.644211 
	C46.589279,39.570438 46.120907,39.496666 45.652534,39.422897 
	C45.652534,35.012028 45.652534,30.601160 45.652534,26.190294 
	C46.086266,26.091770 46.519997,25.993248 46.953728,25.894724 
	C47.455154,27.249676 47.956581,28.604626 48.580429,30.290373 
	C49.706329,29.266785 50.757458,28.049677 52.067894,27.266397 
	C52.506794,27.004057 53.607208,27.848442 54.174873,28.559851 
z"/>
<path fill="#EAC903" opacity="1.000000" stroke="none" 
	d="
M18.091696,31.207293 
	C16.903561,29.638725 15.726406,28.517054 13.762755,26.645960 
	C18.059471,26.645960 21.479799,26.645960 24.900127,26.645960 
	C17.993406,29.230652 22.995012,35.955429 18.768190,39.635338 
	C18.546352,36.974957 18.324512,34.314571 18.091696,31.207293 
z"/>
<path fill="#E7C604" opacity="1.000000" stroke="none" 
	d="
M39.188232,34.565773 
	C40.617374,35.996067 42.037086,36.988995 44.683464,38.839828 
	C42.161827,39.185997 40.226486,39.833973 38.449158,39.536827 
	C37.539841,39.384800 36.315605,37.565136 36.270180,36.456699 
	C36.128445,32.998665 36.480988,29.520372 36.641899,26.049932 
	C37.487534,26.083448 38.333172,26.116962 39.178806,26.150478 
	C39.178806,28.809788 39.178806,31.469097 39.188232,34.565773 
z"/>
</svg>